<?xml version="1.0" encoding="utf-8" ?>
<svg baseProfile="full" height="292.74824956381804" version="1.1" width="446.39011638495634" xmlns="http://www.w3.org/2000/svg" xmlns:ev="http://www.w3.org/2001/xml-events" xmlns:xlink="http://www.w3.org/1999/xlink"><defs /><rect fill="white" height="292.74824956381804" width="446.39011638495634" x="0" y="0" /><path d="M25,25 m318.4373537351711,242.748249563818 l1.4358295986365872,-0.809521121006469 1.3289847091275533,-0.8661002389704038 l1.230202246578301,-0.9309607438139267 1.139482210988831,-1.0041026355368956 l1.0568246023593701,-1.0855259141390545 0.9822294206896912,-1.1752305796207452 l0.9156966659800787,-1.2732166319817964 0.8572263382301344,-1.3794840712222367 l0.8068184374401994,-1.4940328973420947 0.0,0.0 l1.94064796520189,-3.8453282081432003 2.30935203479811,0.33128114654346064 l0.0,0.0 2.003235402662881,0.28075388268769075 l1.6330942576646519,0.2077619453968964 1.3235873717695197,0.13346910425602232 l1.0747147449775412,0.05787535926515375 0.8864763772889431,-0.019019289575425088 l0.7588722687036124,-0.09721484226611209 0.691902419221492,-0.1767112988065378 l0.685566828842525,-0.25750865919707167 0.7398654975669386,-0.3396069234373726 l0.0,0.0 1.0915558395697074,-0.6316236035727626 l1.2016286138176608,-0.870600437440487 1.2553977801815677,-1.0512269770576665 l1.2528633386617685,-1.1735032224242161 1.194025289258093,-1.2374291735398797 l1.0788836319707114,-1.2430048304049137 0.907438366799397,-1.190230193019289 l0.6796894937443199,-1.0791052613829206 0.3956370128054232,-0.9096300354958656 l0.0,0.0 0.16124988130212614,-0.5249337637735891 l0.15748230278893513,-0.421160521271247 0.173114787891393,-0.3319646812524581 l0.20814733660967022,-0.25734624371727927 0.26257994894410785,-0.19730520866545476 l0.3364126248944217,-0.1518415760972971 0.42964536446055485,-0.1209553460126358 l0.5422781676426212,-0.10464651841147088 0.674311034440734,-0.10291509329385916 l0.0,0.0 1.2160672305741966,-0.22348145887283974 l1.1502032928611923,-0.31084625973790025 1.077815636849891,-0.3942874216775749 l0.998904262540293,-0.4738049446919205 0.9134691699325684,-0.5493988287807383 l0.8215103590267744,-0.6210690739441134 0.7230278298227403,-0.6888156801821879 l0.6180215823204094,-0.7526386474947344 0.5064916165200087,-0.8125379758818666 l0.0,0.0 0.47283263467289766,-1.0487141817358177 l0.3916551502951506,-1.204222074903896 0.30788426109967304,-1.3304777321094434 l0.22151996708595334,-1.4274811533523746 0.13256226825490103,-1.4952323386323767 l0.041011164605833976,-1.5337312879498481 -0.05313334386102042,-1.5429780013045615 l-0.14987125714560534,-1.5229724786965448 -0.24920257524797762,-1.4737147201258833 l0.0,0.0 -0.17983732810620268,-0.8989483567973763 l-0.13126165481315866,-0.7664037558659516 -0.08120049789800987,-0.6717290409150678 l-0.029653857360699476,-0.6149242119444409 0.02337826679917043,-0.5959892689542982 l0.07789587458120195,-0.6149242119444693 0.1338989659856793,-0.6717290409150393 l0.19138754101231825,-0.7664037558660083 0.250361599661403,-0.898948356797348 l0.0,0.0 0.3072315359983122,-1.3037684190570076 l0.2177162446584475,-1.421686493943895 0.129533563048426,-1.4930575133742534 l0.042683491168531866,-1.5178814773483111 -0.04283397098146224,-1.4961583858657261 l-0.1270188234012153,-1.4278882389267549 -0.20987106609112516,-1.3130710365312552 l-0.2913906990508508,-1.1517067786793405 -0.3715777222805059,-0.9437954653708971 l0.0,0.0 -0.20285554506648393,-0.41036762782809433 l-0.14857593009395487,-0.31671226197096297 -0.09174156631382856,-0.22945968768968325 l-0.032352453726332435,-0.1486099049841414 0.029591407668988268,-0.07416291385425211 l0.09409001787167881,-0.0061187143001291125 0.16114337688219393,0.05552269367828444 l0.23075148470002202,0.11076131008101697 0.3029143413257316,0.15959713490801164 l0.0,0.0 0.767115768157339,0.3522238533766142 l1.062713533448914,0.4043290181037946 1.2943729417922327,0.4380466150581981 l1.4620939931871817,0.453376644239853 1.565876687634386,0.4503191056488731 l1.6057210251332776,0.42887399928528674 1.5816270056839699,0.3890413251488667 l1.4935946292865765,0.3308210832399254 1.3416238959412112,0.2542132735581788 l0.0,0.0 0.9562176737985624,0.1510927443116259 l0.8543220663225384,0.10828686459439041 0.7918583970004534,0.0640341302205627 l0.7688266658326484,0.018334541190284877 0.7852268728192371,-0.02881190249655674 l0.8410590179599353,-0.07740520083982005 0.9363231012548567,-0.12744535383959033 l1.0710191227041717,-0.17893236149598124 1.2451470823075965,-0.231866223808737 l0.0,0.0 2.099004215833872,-0.43554781093607176 l1.835719561059193,-0.4518173814773831 1.5903764200665476,-0.4766750440040255 l1.3629747928555958,-0.5101207985159704 1.1535146794267348,-0.5521546450131609 l0.9619960797797944,-0.6027765834955403 0.7884189939148314,-0.6619866139632221 l0.6327834218316183,-0.7297847364162066 0.495089363530667,-0.8061709508543231 l0.0,0.0 0.44715416465942326,-0.967057890510091 l0.3596499499165588,-0.9890203061527528 0.27422862584916174,-1.0336028376240165 l0.1908901924570614,-1.100805484923768 0.10963464974082626,-1.190628248051894 l0.03046199770005842,-1.303071127008451 -0.0466277636650716,-1.438134121793581 l-0.12163463435467747,-1.5958172324070574 -0.19455861436864552,-1.7761204588490214 l0.0,0.0 -0.5169824940392118,-3.8431594611288915 l-0.5589151339072487,-3.274891119312627 -0.6480733201983071,-2.8149136496117246 l-0.7844570529122733,-2.4632270520263546 -0.9680663320487496,-2.2198313265563456 l-1.1989011576083044,-2.084726473201698 -1.4769615295905962,-2.0579124919624405 l-1.8022474479957395,-2.139389382838658 -2.17475891282362,-2.3291571458302656 l0.0,0.0 -1.4777487759042742,-1.521270906753557 l-1.2158045915605271,-1.220585792643618 -1.019672117272819,-0.9686550898940993 l-0.8893513530406949,-0.7654787985049438 -0.8248422988639277,-0.6110569184760664 l-0.8261449547429719,-0.5053894498075806 -0.89325932067743,-0.4484763924993729 l-1.0261853966677563,-0.44031774655155687 -1.224923182713496,-0.4809135119640473 l0.0,0.0 -0.9126424300271196,-0.3369731551751158 l-0.9011196892581665,-0.30522546293380515 -0.8860378627444446,-0.27261533453508946 l-0.8673969504861815,-0.23914276997894035 -0.8451969524827518,-0.20480776926521568 l-0.8194378687345534,-0.16961033239400078 -0.7901196992416429,-0.13355045936532406 l-0.7572424440039072,-0.09662815017915705 -0.720806103021232,-0.05884340483549977 l0.0,0.0 -1.0108544282790604,-0.030628978042926747 l-0.9183135031159395,0.023499956067723815 -0.8077223809452789,0.07239189756145947 l-0.6790810617670786,0.11604684643839391 -0.5323895455809975,0.15446480269858398 l-0.36764783238749027,0.18764576634202965 -0.18485592218621605,0.21558973736870257 l0.015986185022711652,0.23829671577854583 0.23487848923934962,0.2557667015716447 l0.0,0.0 0.08956317522051903,0.0833421969710173 l0.0843973473087658,0.10988900445516947 0.07779325186680808,0.1324794322523246 l0.06975088889498691,0.15111348036253958 0.06027025839352972,0.16579114878584275 l0.04935136036215226,0.1765124375222058 0.03699419480096821,0.18327734657168546 l0.02319876170980706,0.18608587593411127 0.007965061088953007,0.1849380256097106 l0.0,0.0 -0.023367439390938213,0.26536163590100154 l-0.0827887237466598,0.22516244680966224 -0.16185913677708183,0.19283373652334032 l-0.2605786784824886,0.1683755050421496 -0.3789473488622548,0.15178775236614683 l-0.5169651479167214,0.14307047849521837 -0.6746320756458886,0.14222368342944944 l-0.8519481320497561,0.14924736716878328 -1.0489133171282106,0.16414152971327664 l0.0,0.0 -1.6529866742404804,0.29487968759889327 l-1.647902862759622,0.3809552071932955 -1.619053396599895,0.4577264914415195 l-1.566438275761243,0.5251935403435368 -1.4900575002434948,0.5833563538994042 l-1.3899110700466506,0.6322149321091216 -1.2659989851708247,0.6717692749726608 l-1.1183212456160163,0.7020193824900218 -0.9468778513820553,0.7229652546612044 l0.0,0.0 -0.8703320060443501,0.8587516433950951 l-0.7977734691154977,1.0151604120290472 -0.7172489287685835,1.1511853273191264 l-0.6287583850034365,1.2668263892655034 -0.5323018378196593,1.3620835978682067 l-0.42787928721764956,1.4369569531272077 -0.3154907331971799,1.4914464550424782 l-0.1951361757585346,1.5255521036140178 -0.06681561490131571,1.5392738988418841 l0.0,0.0 0.0,3.4584288401377137 l-2.719037290477558,1.286310585368227 0.0,0.0 l-0.4941945020584626,0.23044192379845183 -0.47954138834080595,0.2172082758008855 l-0.4557956076343998,0.20026920636394152 -0.4229571599387895,0.1796247154876198 l-0.3810260452542025,0.1552748031720057 -0.3300022635805248,0.12721946941707074 l-0.2698858149179273,0.0954587142227865 -0.20067669926623918,0.05999253758920986 l-0.12237491662557431,0.0208209395162271 0.0,0.0 m-29.124508311905515,80.60214137497036 l-1.4185087944891845,-0.2589967713988415 -1.4846325430845013,-0.3851811510736809 l-1.5026005155320945,-0.4895128066170571 -1.4724127118319075,-0.5719917380291121 l-1.394069131983599,-0.6326179453095051 -1.2675697759875106,-0.6713914284584916 l-1.092914643843585,-0.6883121874759297 -0.8701037355516519,-0.683380222361933 l-0.5991370511119385,-0.656595533116416 0.0,0.0 l-0.36805437690259163,-0.4481801596631385 -0.4089217726199194,-0.35234380026486173 l-0.4549288003800598,-0.2571343676663389 -0.5060754601831263,-0.16255186186739934 l-0.562361752028778,-0.06859628286815678 -0.6237876759170716,0.024732369331559312 l-0.6903532318481779,0.11743409473152155 -0.762058419821983,0.20950889333190048 l-0.8389032398384869,0.30095676513263925 0.0,0.0 l-1.397469596308099,0.4652387287027863 -1.7464707526797267,0.44775308665904845 l-1.999885619622091,0.416741315426151 -2.157714197134908,0.3722034150039803 l-2.219956485217949,0.31413938539273545 -2.1866124838715564,0.24254922659230257 l-2.0576821930956726,0.15743293860276708 -1.833165612890241,0.05879052142401519 l-1.5130627432550907,-0.0533780249438962 0.0,0.0 l-1.6466073667251635,-0.18061689167711845 -1.4879250495490053,-0.2523528400799648 l-1.36231359099321,-0.3393699111297223 -1.269772991057721,-0.4416681048265332 l-1.2103032497424238,-0.5592474211700846 -1.183904367047262,-0.6921078601605757 l-1.190576342972463,-0.8402494217979495 -1.230319177517913,-1.0036721060822913 l-1.303132870683555,-1.1823759130134306 0.0,0.0 l-1.226946219193394,-1.2001549424863924 -1.049135824801169,-1.114215970829349 l-0.8750184871425404,-1.0344098318923614 -0.7045942062178482,-0.9607365256752017 l-0.5378629820265814,-0.8931960521778137 -0.37482481456891037,-0.8317884114003107 l-0.2154797038450624,-0.776513603342579 -0.05982764985481026,-0.7273716280048461 l0.09213134740184614,-0.6843624853868276 0.0,0.0 l0.06383331684975246,-0.31915736301860415 0.023180120825941227,-0.3001909261602975 l-0.0205809963200636,-0.28887922942183764 -0.06745003458831889,-0.2852222728031108 l-0.11742699397871093,-0.2892200563040035 -0.17051187449129654,-0.3008725799246008 l-0.22670467612596212,-0.32017984366493124 -0.2860053988829918,-0.3471418475249379 l-0.3484140427619877,-0.3817585915046493 0.0,0.0 l-0.7720860100230879,-0.918503542471086 -0.8510385528700226,-1.1893920003801384 l-0.8913969410987191,-1.3892555634769224 -0.8931611747087516,-1.518094231761296 l-0.8563312537001763,-1.5759080052332024 -0.7809071780729652,-1.5626968838927269 l-0.6668889478272318,-1.4784608677398694 -0.5142765629629479,-1.323199956774573 l-0.3230700234799997,-1.0969141509968665 0.0,0.0 l-0.3469718062003437,-1.6599699149676042 -0.28497470748618525,-1.5902407693865541 l-0.22175791512313478,-1.5034940048318504 -0.15732142911085134,-1.3997296213035497 l-0.09166524944936327,-1.2789476188013396 -0.024789376138670605,-1.1411479973254472 l0.04330619082108455,-0.9863307568758158 0.11262145143001588,-0.8144958974524741 l0.18315640568815184,-0.6256434190553647 0.0,0.0 l0.39194479202970456,-0.8229804508918618 0.45201850021280165,-0.7262352719371847 l0.5159343201198396,-0.63213965752783 0.5836922517507901,-0.5406936076635985 l0.6552922951058234,-0.451897122344377 0.7307344501849115,-0.36575020157036414 l0.8100187169879121,-0.2822528453413895 0.8931450955149103,-0.2014050536575951 l0.980113585765963,-0.12320682651886727 0.0,0.0 l0.6737848239204709,-0.06547713060371052 0.5836216388399293,-0.07936875254654296 l0.504155779217399,-0.0973955080263238 0.43538724505276605,-0.1195573970431667 l0.37731603634648536,-0.14585441959687273 0.3299421530981021,-0.1762865756876124 l0.2932655953080143,-0.21085386531524364 0.2672863629758808,-0.2495562884798801 l0.2520044561018721,-0.2923938451814365 0.0,0.0 l0.34807773393418984,-0.5371423913291551 0.33404679890759326,-0.6954534952467384 l0.3128279648377656,-0.824949709188445 0.284421231724707,-0.9256310331543034 l0.24882659956853104,-0.9974974671441146 0.20604406836923772,-1.040549011158049 l0.15607363812677022,-1.0547856651959933 0.09891530884101485,-1.0402074292580605 l0.034569080512142136,-0.9968143033441094 0.0,0.0 l0.046468739769466076,-0.7633276229790339 0.1340805137309644,-0.891528674961762 l0.21370372932574355,-0.9940455574057409 0.2853383865540309,-1.0708782703108 l0.3489844854158264,-1.1220268136769957 0.4046420259111301,-1.1474911875041867 l0.45231100803982827,-1.1472713917925432 0.49199143180203464,-1.121367426542065 l0.5236832971978059,-1.06977929175261 0.0,0.0 l0.772414915599711,-1.1833066657466418 1.041899990713432,-1.128108109666897 l1.2710502865316469,-1.0519283243847326 1.4598658030542992,-0.9547673099000916 l1.608346540281559,-0.8366250662128607 1.7164924982134266,-0.6975015933230962 l1.7843036768497882,-0.5373968912307703 1.8117800761907572,-0.35631095993605294 l1.7989216962362204,-0.15424379943868868 0.0,0.0 l0.9279495827228175,-0.016953602634998788 0.751375307456783,0.022576226733661994 l0.6215011828575143,0.09184838112696524 0.5383272089248407,0.1908628605446836 l0.5018533856591603,0.3196196649871581 0.5120797130601886,0.47811879445416133 l0.5690061911280395,0.6663602489458071 0.6726328198625993,0.8843440284619816 l0.8229595992640951,1.1320701330028555 0.0,0.0 l0.40500555167091074,0.4531780270701517 0.4130598150138666,0.2702242212067176 l0.40499210301715033,0.09754477434694309 0.38080241568081874,-0.06486031350900134 l0.3404907530050991,-0.21699104236111563 0.28405711498976416,-0.35884741220948513 l0.21150150163504122,-0.49042942305399606 0.1228239129405324,-0.6117370748947906 l0.018024348906692463,-0.7227703677317265 0.0,0.0 l0.040943624990006804,-0.829373321981052 0.17850984391884595,-1.0862306659852834 l0.2951011985521177,-1.2772124608949014 0.3907176888903905,-1.4023187067098204 l0.46535931493355065,-1.4615494034300696 0.5190260766815982,-1.454904551055563 l0.551717974134533,-1.3823841495863858 0.5634350072922985,-1.2439881990225388 l0.5541771761548944,-1.0397166993639928 0.0,0.0 l0.6692159311339765,-1.0178963850940477 0.800268139643947,-1.0308257638327802 l0.903420454492391,-1.018749700300674 0.9786728756789671,-0.9816681944975584 l1.0260254032043008,-0.9195812464233484 1.0454780370679941,-0.8324888560782425 l1.0370307772699334,-0.7203910234620992 1.000683623810346,-0.5832877485750032 l0.9364365766893457,-0.42117903141689794 0.0,0.0 l1.297295788251233,-0.42328295547778794 1.2134935224993342,-0.22735465809518018 l1.2294892433483824,0.005961341169950174 1.3452829507984914,0.27666504231763156 l1.5608746448498891,0.5847564453480061 1.8762643255021771,0.9302355502609031 l2.2914519927557535,1.313102357056465 2.806437646610334,1.733356865734521 l3.4212212870660323,2.1909990762952702 0.0,0.0 l2.412752735434651,1.5599908171624006 3.4715269175543995,-0.5953008084147768 l0.0,0.0 m48.95296761157629,20.6330025193875 l-2.465015558656546,-0.821994476571092 -2.5399641768431707,-1.0926575118336075 l-2.5557558255050594,-1.322567974357099 -2.5123905046418713,-1.5117258641415103 l-2.4098682142536063,-1.6601311811867843 -2.2481889543403213,-1.7677839254930063 l-2.0273527249020162,-1.834684097060119 -1.7473595259388046,-1.8608316958881232 l-1.4082093574504597,-1.8462267219770183 0.0,0.0 l-0.6618580311386494,-1.0225255052275768 -0.5356463309839796,-0.8950505231049988 l-0.4083805056105234,-0.7641339301720791 -0.2800605550180535,-0.6297757264287895 l-0.15068647920668354,-0.4919759118750448 -0.020258278176243035,-0.35073448651084504 l0.11122404807309749,-0.20605145033630376 0.2437604995412812,-0.05792680335133582 l0.3773510762285355,0.0936394544441157 0.0,0.0 l0.314130363389836,0.03845602285673522 0.36868883316486745,-0.08464036269501207 l0.39881136503993275,-0.1869010258965602 0.40449795901514557,-0.2683259667478523 l0.3857486150907334,-0.32891518524880325 0.342563333266412,-0.3686686813995266 l0.27494211354246545,-0.38758645519993706 0.18288495591860965,-0.3856685066501199 l0.06639186039507194,-0.3629148357499332 0.0,0.0 l-0.04120082396713087,-0.3570324982816828 -0.12059465251013535,-0.325996817181192 l-0.19547675196685077,-0.29203246983178127 -0.26584712233739083,-0.2551394562333371 l-0.3317057636213007,-0.21531777638571725 -0.3930526758189216,-0.17256743028917754 l-0.4498878589300261,-0.12688841794346215 -0.5022113129549552,-0.07828073934871327 l-0.5500230378933111,-0.02674439450493082 0.0,0.0 l-1.6499999999999773,0.0 0.004884457851972001,-3.375 l0.0,0.0 0.10253821623683734,-1.765229551046417 l0.2978341495468726,-1.6922335956408574 0.486265404791709,-1.6077935908384404 l0.6678319819716875,-1.5119095366389956 0.8425338810868651,-1.4045814330424378 l1.0103711021369006,-1.2858092800489374 1.1713436451221921,-1.1555930776583807 l1.3254515100424553,-1.013932825870853 1.472694696897861,-0.8608285246862408 l0.0,0.0 0.9149533052489573,-0.4273206770367323 l1.014106170585421,-0.41152065010703603 1.084261036575981,-0.38767011107168514 l1.125417903220864,-0.35576905993082164 1.1375767705202973,-0.31581749668413295 l1.120737638474111,-0.2678154213319033 1.0749005070823043,-0.21176283387399053 l1.0000653763448213,-0.1476597343104231 0.8962322462618885,-0.07550612264122947 l0.0,0.0 0.47013031550062573,-0.02065813804534855 l0.48628257887526155,-0.021294836692732133 0.4912722908093201,-0.021447138137972385 l0.48509945130314236,-0.02111504238121142 0.46776406035661466,-0.02029854942225029 l0.43926611796979387,-0.018997659261145827 0.3996056241427368,-0.01721237189795488 l0.3487825788751024,-0.014942687332620608 0.2867969821674023,-0.012188605565171429 l0.0,0.0 0.31640212246435334,-0.023183877743093717 l0.2694100010159559,-0.042096005161909034 0.22502618040056174,-0.06301527498592918 l0.18325066061794357,-0.08594168721523941 0.1440834416681014,-0.11087524184969766 l0.10752452355131936,-0.13781593888938912 0.07357390626731329,-0.1667637783343707 l0.04223158981631059,-0.19771876018452872 0.013497574198140683,-0.23068088443991996 l0.0,0.0 -0.013010024145216903,-0.2385216087263018 l-0.04168745296681209,-0.20040287624073014 -0.0743509525853483,-0.16496961864740456 m14.028878393139507,35.40140111471891 l1.003330884030504,-0.592923941827479 0.8408272450375306,-0.6406579197299037 l0.6699345951398641,-0.6697802221005134 0.4906529343379588,-0.6802908489392507 l0.30298226263181505,-0.6721898002460306 0.10692258002148947,-0.6454770760209952 l-0.09752611349330208,-0.6001526762640026 -0.31036381791233225,-0.5362166009751377 l-0.5315905332356577,-0.4536688501543438 0.0,0.0 l-0.3720098954165109,-0.1793776977434618 -0.3800236748108432,-0.07825657718734645 l-0.38345506228932885,0.020311668271205004 -0.38230405785225224,0.11632703863233473 l-0.37657066149893126,0.20978953389604268 -0.36625487322982053,0.30069915406232894 l-0.3513566930447496,0.3890558991311934 -0.33187612094388896,0.47485976910257927 l-0.3078131569270681,0.5581107639765718 0.0,0.0 l-0.1828057732435013,0.32243626655218804 -0.22010613445979743,0.2837877649726295 l-0.2724295318312784,0.2527339788276777 -0.33977596535777366,0.2292749081173895 l-0.4221454350390559,0.21341055284202068 m-16.705550537764964,-14.513592821616214 l0.3693789335052315,-0.4060859710926934 0.2786861470623876,-0.3381079637007076 l0.1887858515695484,-0.286221822254646 0.09967804702660032,-0.25042754675453693 l0.011362733434111759,-0.23072513720020993 -0.07616008920842886,-0.2271145935917502 l-0.1628904209007942,-0.23959591592918625 -0.24882826164292735,-0.26816910421248963 l-0.3339736114350557,-0.31283415844160345 0.0,0.0 l-0.37700603085369266,-0.26428684278090486 -0.42920162030253545,-0.1758982398557691 l-0.45561704615454346,-0.09143824421497015 -0.4562523084097734,-0.010906855858394236 l-0.4311074070676568,0.06569592521412915 -0.3801823421288759,0.13837009900240105 l-0.3034771135930896,0.20711566550647828 -0.200991721460241,0.2719326247263609 l-0.07272616573050072,0.3328209766621341 0.0,0.0 l-0.007599025766751311,0.1747081427156729 -0.026062221904908252,0.1302005986582628 l-0.049423134950984604,0.08549329992808907 -0.07768176490469614,0.04058624652518006 l-0.11083811176564494,-0.004520561550378943 m16.464099292550998,-2.4787182510119408 l0.4094574682207508,-0.7516174687415003 0.2571143105095075,-0.7506123684671024 l0.11101321600784785,-0.7262646257925667 -0.028845815284398665,-0.6785742407176939 l-0.16246278336689102,-0.607541213242456 -0.2898376882397997,-0.5131655433669094 l-0.41097052990312477,-0.3954472310910262 -0.525861308356923,-0.2543862764148628 l-0.6345100236009671,-0.08998267933836245 0.0,0.0 l-0.3489393326170216,0.06207096259308287 -0.33750598375706886,0.17267950915186245 l-0.31387236074931474,0.2629879877693213 -0.2780384635931341,0.33299639844543094 l-0.23000429228864047,0.3827047411804187 -0.1697698468358908,0.4121130159740858 l-0.09733512723494185,0.4212212228265173 -0.012700133485736842,0.4100293617376564 l0.08413513441183795,0.37853743270758855 0.0,0.0 l0.04594716555516243,0.1575116651766848 0.013699248579655432,0.14787476188317328 l-0.018121261007252087,0.13762558308209805 -0.04951436320550328,0.12676412877337384 l-56.18773846983037,90.72784239355957 " fill="none" stroke="black" stroke-width="1" /></svg>