<?xml version="1.0" encoding="utf-8" ?>
<svg baseProfile="full" height="315.0" version="1.1" width="284.5905919900939" xmlns="http://www.w3.org/2000/svg" xmlns:ev="http://www.w3.org/2001/xml-events" xmlns:xlink="http://www.w3.org/1999/xlink"><defs /><rect fill="white" height="315.0" width="284.5905919900939" x="0" y="0" /><path d="M25,25 m0.0,0.0 m224.63709925483556,251.82570654099356 l9.953492735258322,-21.058895870248087 -4.462191258935917,-10.766810670745492 l0.0,0.0 -5.719127413174974,4.406250000000007 l-6.9092733179829935,10.593749999999993 0.0,0.0 l-11.567017560200483,14.096604787851845 -17.297335443703652,-9.096604787851845 l0.0,0.0 -17.25999993539002,-9.571793514064453 l-6.289244357517703,5.821793514064453 0.0,0.0 l16.220185926320525,17.359009067162603 24.510102139015686,11.390990932837397 l0.0,0.0 9.017216936076977,-3.869948703583148 l9.803191550234231,-9.304344755423273 m-40.78293258816892,-70.88820654099358 l-0.927734375,-4.193359375000014 -5.009765625,-1.7441406249999858 l0.0,0.0 -5.591145833333329,2.3255208333333144 l-2.3255208333333144,5.591145833333329 0.0,0.0 l5.768193882712005,5.7981977345915325 8.085972783954638,-7.7773644012581755 m35.0,-10.0 l-0.927734375,-4.193359375000014 -5.009765625,-1.7441406249999858 l0.0,0.0 -5.591145833333329,2.3255208333333144 l-2.3255208333333144,5.591145833333329 0.0,0.0 l5.768193882712005,5.7981977345915325 " fill="none" stroke="black" stroke-width="1" /></svg>