<?xml version="1.0" encoding="utf-8" ?>
<svg baseProfile="full" height="249.0" version="1.1" width="250.13523587935487" xmlns="http://www.w3.org/2000/svg" xmlns:ev="http://www.w3.org/2001/xml-events" xmlns:xlink="http://www.w3.org/1999/xlink"><defs /><rect fill="white" height="249.0" width="250.13523587935487" x="0" y="0" /><path d="M225.0,124.49999999999999 m0.0,-99.49999999999999 l-100.0,0.0 0.0,0.0 l-100.0,0.0 0.0,99.49999999999999 l0.0,0.0 0.0,99.49999999999999 l100.0,0.0 0.0,0.0 l100.0,0.0 0.0,-99.49999999999999 m-131.99852622215184,70.45225424859372 l0.08244297210283945,-1.4674227833737346 0.23450384042375558,-1.9433576409167868 l0.37070113565310686,-2.3418641971877605 0.4910348577909218,-2.662942452186655 l0.5955050068372572,-2.9065924059134143 0.6841115827920844,-3.0728140583680665 l0.7568545856553895,-3.1616074095506406 0.8137340154271584,-3.172972459461164 l0.8547498721074617,-3.1069092080994665 0.0,0.0 l0.04654412871551017,-0.11176140790882981 0.07543981291068746,-0.11074847316683645 l0.10413875376984548,-0.10960483115729858 0.13264095129299847,-0.10833048188027304 l0.16094640548020323,-0.10692542533564618 0.1890551163313887,-0.10538966152347483 l0.21696708384661179,-0.103723190443759 0.244682308025844,-0.10192601209649865 l0.2722007888690854,-0.09999812648163696 0.0,0.0 l0.2538864476646978,-0.09449292850877099 0.2809526940374525,-0.11625340013159757 l0.300459119240898,-0.1342243776043972 0.3124057232751056,-0.14840586092714148 l0.31679250614006094,-0.15879785009965985 0.3136194678357782,-0.16540034512217971 l0.30288660836224324,-0.16821334599455895 0.28459392771941333,-0.16723685271682598 l0.25874142590740234,-0.16247086528898078 0.0,0.0 l0.545881175913621,-0.3406313006025811 0.44966212204838024,-0.2372199381476605 l0.36585203528169075,-0.12818123245546076 0.29445091561358083,-0.013515183526067176 l0.23545876304407898,0.10677820864066234 0.1888755775732278,0.23269894404455724 l0.15470135920089945,0.3642470226857597 0.13293610792720756,0.5014224445642412 l0.12357982375212373,0.644225209679945 0.0,0.0 l0.29498507503791416,1.720220456273296 -1.6277947554901289,4.216543585847801 l0.0,0.0 -1.1089846807258965,2.828138322145889 l-1.0802097505628012,2.666007750941531 -1.046048287490919,2.492064370422923 l-1.0065002915102923,2.306308180590065 -0.9615657626208644,2.1087391814431555 l-0.9112447008226495,1.8993573729819957 -0.855537106115662,1.6781627552067275 l-0.7944429784998874,1.445155328117238 -0.7279623179753258,1.2003350917136117 l0.0,0.0 -0.4419190480485753,0.6756553550833359 l-0.3540147952203369,0.5125998626569697 -0.27568155585845483,0.35202804895052964 l-0.20691932996292906,0.19393991396410115 -0.1477281175337026,0.038335457697627355 l-0.09810791857083245,-0.11478531984883489 -0.05805873307431852,-0.2654224186752572 l-0.027580561044103998,-0.41357583878178156 -0.006673402480245726,-0.5592455801682661 m13.329286094394547,-0.6397542485937321 l0.03616899995630263,-0.44044924554185627 0.050160044912786354,-0.5093021262002537 l0.06222783263723386,-0.5632115912208349 0.07237236312955986,-0.6021776406035997 l0.08059363638994908,-0.626200274348406 0.08689165241827367,-0.6352794924554246 l0.09126641121454782,-0.6294152949245415 0.09371791277881412,-0.608607681755842 l0.09424615711104423,-0.572856652949241 0.0,0.0 l0.21185449471015258,-1.1611133843501023 0.27722367748671667,-1.4036369074249535 l0.3206038498923931,-1.5471533488822613 0.3419950119271107,-1.5916627087219126 l0.34139716359099737,-1.5371649869438782 0.31881030488393947,-1.3836601835481588 l0.274234435806008,-1.1311482985348105 0.20766955635718887,-0.7796293319038057 l0.11911566653745352,-0.3291032836551437 0.0,0.0 l0.03047450921813777,-0.013416800683529571 0.049982579569842756,0.0010319036883572608 l0.06722559763213097,0.014554227987758848 0.08220356340500246,0.02715017221467519 l0.09491647688854243,0.03881973636921998 0.10536433808266565,0.049562920451279524 l0.11354714698741473,0.05937972446088224 0.11946490360277551,0.06827014839805656 l0.12311760792876214,0.07623419226277406 0.0,0.0 l0.36699970173074803,0.22016595470446987 0.4417761951271615,0.2398520777437909 l0.4894264616837063,0.2473654887242844 0.5099505014004677,0.24270618764592197 l0.5033483142774456,0.22587417450881728 0.4696199003146119,0.1968694493129135 l0.40876525951196635,0.155692012058239 0.3207843918694948,0.10234186274470858 l0.20567729738725402,0.036819001372407456 0.0,0.0 l0.20481185362770304,0.02865823292191294 0.14066340401858213,0.09367847797369677 l0.07444258260318293,0.17025439183720437 0.0061493893815196534,0.25838597451249257 l-0.06421617564632243,0.35807322599967506 -0.13665411248041437,0.4693161462985529 l-0.21116442112075617,0.592114735409325 -0.2877471015673194,0.7264689933318209 l-0.36640215382011826,0.8723789200661827 0.0,0.0 l-0.9375939798012353,2.1308990880808945 -0.9566334902094978,2.066456862076592 l-0.9487575892430441,1.9522824842278792 -0.913966276901931,1.7883759545348425 l-0.8522595531860729,1.5747372729976232 -0.7636374180955271,1.3113664396159945 l-0.6480998716302507,0.99826345439007 -0.5056469137903008,0.6354283173198779 l-0.33627854457563444,0.2228610284053616 0.0,0.0 l-0.04314030072366392,-0.03175594161396589 -0.03488786045672043,-0.09289294045450447 l-0.02650480934478594,-0.15046761271437956 -0.01799114738781782,-0.2044799583934207 l-0.009346874585787646,-0.25492997749159935 -0.0005719909387522648,-0.3018176700089725 l0.008333503553330956,-0.3451430359455685 0.017369608890433597,-0.3849060753013304 l0.026536325072598285,-0.42110678807625845 m57.61030705144799,0.26043818811257324 l-0.17309712794929052,-0.39348522272638314 -0.1903038575835012,-0.45718956235475616 l-0.202460482867707,-0.507360746708855 -0.20956700380176585,-0.5439987757885945 l-0.2116234203856777,-0.5671036495938323 -0.20862973261952789,-0.5766753681247109 l-0.20058594050323109,-0.5727139313812016 -0.18749204403684416,-0.5552193393633046 l-0.16934804322031027,-0.5241915920709346 0.0,0.0 l-0.3693849356922953,-1.2308945118586223 -0.4200240633569478,-1.4909623126662268 l-0.44386077020232045,-1.644598345615833 -0.44089505622824277,-1.6918026107074127 l-0.41112692143474305,-1.6325751079409085 -0.35455636582179295,-1.4669158373163211 l-0.2711833893894209,-1.1948247988336786 -0.1610079921377121,-0.8163019924930096 l-0.0240301740664961,-0.33134741829422865 0.0,0.0 l0.04362699893317767,-0.009710760277386044 0.08778602338759355,0.009938732061499422 l0.1273471104346129,0.028150221029932254 0.1623102600742925,0.04492370662788403 l0.19267547230666082,0.06025918885549685 0.21844274713174627,0.07415666771262863 l0.2396120845495204,0.08661614319942144 0.2561834845599549,0.09763761531573323 l0.26815694716307803,0.10722108406167763 0.0,0.0 l0.28965800622779625,0.1116771843903166 0.3181356886448725,0.11047722643220935 l0.3381889739904693,0.10704623029937466 0.34981786226470035,0.10138419599189773 l0.3530223534675656,0.0934911235097786 0.34780244759900825,0.08336701285293202 l0.33415814465914195,0.0710118640215569 0.3120894446477962,0.05642567701536904 l0.2815963475651415,0.039608451834595826 0.0,0.0 l0.376616142080536,0.046612368776351325 0.3061298514016926,0.04636760280973817 l0.24269802988322908,0.049523232025819645 0.18632067752531611,0.05607925642459576 l0.13699779432801049,0.06603567600629388 0.0947293802911986,0.0793924907706298 l0.059515435414937194,0.09614970071777407 0.031355959699197904,0.1163073058476698 l0.010250953144037567,0.13986530616034543 0.0,0.0 l0.00508407646964315,0.1698451950853439 0.01217803577199561,0.3052260643001716 l0.018573527691387426,0.4257572892695123 0.02427055222770491,0.5314388699935364 l0.02926910938117544,0.6222708064722156 0.033569199151685325,0.6982530987054644 l0.037170821539206145,0.759385746693482 0.04007397654373789,0.8056687504360127 l0.04227866416536585,0.8371021099332835 0.0,0.0 l0.06053476203513241,1.5661017471995249 0.027247023444488146,1.5996272169583392 l-0.0037580788553555067,1.5797080433844428 -0.032480544864426975,1.5063442264778641 l-0.05892037458244204,1.3795357662386891 -0.08307756800965649,1.1992826626668318 l-0.10495212514598506,0.9655849157623493 -0.12454404599142775,0.6784425255252131 l-0.1418533305459846,0.3378554919553948 0.0,0.0 l-0.051754894490841245,0.005849901787456701 -0.07665194749307602,-0.055616675550254506 l-0.09838975075746247,-0.1120729700264178 -0.11696830428363114,-0.16351898164089107 l-0.13238760807178096,-0.2099547103936743 -0.14464766212182667,-0.25138015628482435 l-0.15374846643382512,-0.2877953193142275 -0.15969002100771945,-0.31920019948202594 l-0.16247232584353807,-0.3455947967881343 m13.734138264755444,1.4097167420611638 l-0.3778156137882717,-0.6690263271490267 -0.41982105903156247,-0.919111118810008 l-0.45631220432858294,-1.1523312138762378 -0.4872890496794184,-1.3686866123476307 l-0.5127515950838982,-1.5681773142242432 -0.5326998405420794,-1.7508033195060193 l-0.5471337860539619,-1.9165646281929865 -0.5560534316196026,-2.065461240285117 l-0.5594587772389161,-2.1974931557824675 0.0,0.0 l-0.9908790197493147,-4.0 0.5635173730444762,-0.37499999999999994 l0.0,0.0 0.5152580928844372,-0.3521589969487593 l0.4805960712126023,-0.34820120135884736 0.4496314921192947,-0.34754537003323094 l0.42236435560457153,-0.3501915029718816 0.39879466166837574,-0.35613960017474255 l0.37892241031076423,-0.3653896616418421 0.36274760153176544,-0.37794168737315204 l0.3502702353312372,-0.3937956773687574 0.3414903117093502,-0.41295163162857307 l0.0,0.0 0.20201985367822314,-0.2513062877119694 l0.19183454105268538,-0.2354583226925797 0.1782825776649588,-0.21568769069486393 l0.161363963515015,-0.19199439171867994 0.14107869860310984,-0.16437842576394246 l0.11742678292901587,-0.1328397928307936 0.09040821649278996,-0.0973784929192334 l0.060022999294460526,-0.05799452602914812 0.026271131334027586,-0.01468789216062305 l0.0,0.0 0.015164609833277607,0.08696059488298147 l0.028021157682218245,0.23489094511353412 0.03948763910386788,0.3686539773401591 l0.0495640540982265,0.4882496915628849 0.05825040266543624,0.5936780877817114 l0.06554668480532655,0.6849391659967522 0.07145290051803953,0.762032926207837 l0.07596904980346153,0.824959368415051 0.07909513266167778,0.8737184926183942 l0.0,0.0 0.14862344007158865,1.9728264552244639 l0.12022925589755572,2.2254465378302655 0.09050971791199912,2.365247535093971 l0.0594648261149473,2.3922294470157226 0.027094580506599186,2.3063922735956623 l-0.006601018913272583,2.1077360148335345 -0.04162197214455432,1.7962606707295377 l-0.07796827918727445,1.3719662412835303 -0.11563994004140454,0.8348527264956259 l0.0,0.0 -0.2551923722427034,1.0 l-0.4235368620105646,-0.6423450698262626 m-38.85906781162291,-16.618053041597108 l-1.116070197224417,-0.35420134678474824 -1.0526094493833398,-0.44364865914619145 l-0.9872018996749716,-0.5314883852323078 -0.919847548099213,-0.6177205250432678 l-0.8505463946560639,-0.7023450785788724 -0.7792984393455527,-0.7853620458392925 l-0.706103682167594,-0.8667714268243571 -0.6309621231223446,-0.9465732215342655 l-0.5538737622096335,-1.0247674299688185 0.0,0.0 l-0.2797912337106112,-0.571518640120587 -0.23387378913322718,-0.45775478682259063 l-0.19820973422079646,-0.3564142040874003 -0.17279906897323372,-0.2674968919148455 l-0.15764179339042525,-0.19100285030489772 -0.15273790747254165,-0.12693207925772754 l-0.15808741121949763,-0.07528457877313599 -0.1736903046313216,-0.03606034885126519 l-0.19954658770794254,-0.00925938949205829 0.0,0.0 l-0.19118475142788324,0.008687644950441609 -0.16812192377493318,0.030782749018499086 l-0.152274870028549,0.05995757433686322 -0.14364359018875916,0.09621212090564768 l-0.14222808425542155,0.13954638872493771 -0.14802835222867827,0.18996037779467656 l-0.16104439410844404,0.2474540881148073 -0.18127620989474735,0.31202751968541514 l-0.20872379958757392,0.38368067250647186 0.0,0.0 l-0.9173695453613532,1.4552630780833624 -1.0970607899663205,1.2847069823606887 l-1.2509930161191958,1.101980299364044 -1.3791662238199365,0.9070830290932008 l-1.4815804130684853,0.7000151715485572 -1.558235583864942,0.48077672672982885 l-1.6091317362091928,0.24936769463712946 -1.6342688701013657,0.005788075270373837 l-1.6336469855413327,-0.2499621313703244 0.0,0.0 l-1.5555429715343507,-0.46978733575417664 -1.43919884576313,-0.6455569069377134 l-1.3135703667311276,-0.8113378212846669 -1.1786575344383294,-0.9671300787951224 l-1.0344603488846076,-1.112933679468881 -0.8809788100701184,-1.248748623306028 l-0.7182129179947339,-1.374574910306677 -0.5461626726585536,-1.4904125404706574 l-0.36482807406150636,-1.5962615137980547 0.0,0.0 l-0.09009233012142204,-0.5372697775813435 -0.08017373114391546,-0.42403055283855906 l-0.08168068167366015,-0.32989804049344684 -0.09461318171068456,-0.25487224054597846 l-0.11897123125490339,-0.19895315299609703 -0.15475483030633086,-0.16214077784377423 l-0.20196397886502382,-0.1444351150890668 -0.26059867693095384,-0.14583616473200323 l-0.33065892450406403,-0.1663439267725266 0.0,0.0 l-0.4871060392089958,-0.22375062032463688 -0.4427401442394938,-0.16379990694761656 l-0.4068077634328517,-0.1034119901711108 -0.37930889678902696,-0.0425868699948353 l-0.3602435443079486,0.018675453581010967 -0.3496117059897159,0.08037498055657011 l-0.3474133818342721,0.1425117109317 -0.35364857184166,0.2050856447065712 l-0.36831727601180825,0.26809678188101316 0.0,0.0 l-1.2594529322523156,0.8491727363767723 -1.3732069153587927,0.6568811696198792 l-1.4582256961682987,0.46324866157834776 -1.5145092746807336,0.26827521225214923 l-1.5420576508961972,0.07196082164139739 -1.5408708248145613,-0.1256945102539362 l-1.5109487964359403,-0.3246907834339367 -1.4522915657602908,-0.5250279978984906 l-1.3648991327875988,-0.7267061536476546 0.0,0.0 l-1.1593655842788237,-0.837987882800462 -1.038116906656981,-0.9659653925959333 l-0.9084330791681124,-1.0770581410240538 -0.7703141018122395,-1.1712661280847385 l-0.6237599745892837,-1.2485893537778736 -0.46877069749930905,-1.3090278181036297 l-0.3053462705422873,-1.3525815210619212 -0.13348669371824684,-1.3792504626527773 l0.04680803297286218,-1.3890346428761686 0.0,0.0 l0.10440928963859619,-1.0615085968623816 0.07364848086436382,-0.8407646629998169 l0.04012298060795416,-0.646509391043594 0.0038327888694169587,-0.47874278099365597 l-0.035222094351261994,-0.3374648328499461 -0.0770416690540614,-0.22267554661249278 l-0.12162593523901676,-0.13437492228135284 -0.16897489290609968,-0.07256295985645522 l-0.21908854205531014,-0.037239659337814146 0.0,0.0 l-0.14680436066880986,-0.004325222472175482 -0.16719651523742127,0.017996483316792933 l-0.18544156491926597,0.039519401662147395 -0.2015395097143724,0.060243532564015816 l-0.21549034962263391,0.08016887602238398 -0.2272940846441145,0.09929543203722346 l-0.23695071477881413,0.11762320060861951 -0.24446024002672573,0.13515218173640162 l-0.24982266038784218,0.15188237542076877 0.0,0.0 l-1.2384524019337562,0.6647524742998314 -1.3300529104687442,0.49027217775213217 l-1.3951542749072559,0.3163395585864066 -1.4337564952492698,0.1429546168024558 l-1.4458595714947504,-0.029882647599521306 -1.4314635036437409,-0.20217223461958153 l-1.3905682916962332,-0.37391414425772496 -1.323173935652207,-0.5451083765139799 l-1.2292804355116755,-0.7157549313883179 0.0,0.0 l-1.6973818162110277,-1.3896729496929365 -1.369796377506219,-1.6033599961947544 l-1.0348187851684756,-1.774180405603772 -0.6924490391978395,-1.9021341779199046 l-0.34268713959424696,-1.9872213131431378 0.014466913642280586,-2.029441811273457 l0.3790131205117149,-2.0287956723108778 0.7509514810141056,-1.9852828962554696 l1.1302819951494099,-1.8989034831071052 0.0,0.0 l0.34583654271690983,-0.506528177121254 0.23619551010027348,-0.42278773258719576 l0.11775938057873958,-0.355320148604278 -0.009471845847649263,-0.3041254251724723 l-0.14549816917887878,-0.2692035622917075 -0.29031958941495617,-0.2505545599620973 l-0.4439361065559026,-0.24817841818354225 -0.6063477206016968,-0.2620751369560992 l-0.777554431552346,-0.2922447162797397 0.0,0.0 l-0.5475090350585035,-0.22996468740014106 -0.6096214205818598,-0.3104170214869839 l-0.6424473228582314,-0.37056739367982056 -0.6459867418875972,-0.4104158039785517 l-0.6202396776699501,-0.42996225238313457 -0.5652061302053183,-0.42920673889365446 l-0.4808860994936807,-0.4081492635100403 -0.36727958553503726,-0.36678982623242 l-0.22438658832940206,-0.30512842706060894 0.0,0.0 l-0.06072633649086612,-0.12366430095973158 -0.0380001985915257,-0.10590202401526481 l-0.01348432069889327,-0.09126012762230573 0.012821297187080916,-0.07973861178079744 l0.04091665506637554,-0.07133747649059785 0.07080175293901192,-0.06605672175192011 l0.10247659080496874,-0.06389634756459373 0.1359411686642389,-0.06485635392873235 l0.1711954865168508,-0.06893674084426493 0.0,0.0 l0.43610677240282314,-0.19574005647702108 0.4638543573721136,-0.2624198043981494 l0.4795561285203788,-0.3189172730329801 0.48321208584765424,-0.36523246238142804 l0.47482222935391855,-0.40136537244350734 0.45438655903919306,-0.4273160032192606 l0.42190507490346363,-0.4430843547086453 0.37737777694673014,-0.4486704269116615 l0.32080466516899975,-0.4440742198283374 0.0,0.0 l0.5198514042030808,-0.8687957807479592 0.47129877909630835,-0.9576789048307432 l0.4260291174143802,-1.0589051495323927 0.3840424191573675,-1.172474514852837 l0.3453386843252346,-1.2983870007920044 0.3099179129180101,-1.4366426073499952 l0.2777801049356725,-1.5872413345267233 0.248925260378229,-1.7501831823222602 l0.22335337924568674,-1.9254681507365772 0.0,0.0 l0.06420812023335998,-0.5696307031985839 0.06910562427506761,-0.5355105901183776 l0.0726949675960924,-0.4946286304305403 0.07497615019642721,-0.446984824135086 l0.07594917207612184,-0.3925791712319011 0.07561403323514071,-0.3314116717210709 l0.07397073367349094,-0.26348232560258106 0.07101927339116543,-0.18879113287641755 l0.06675965238818549,-0.10733809354258027 0.0,0.0 l0.1167369541396468,-0.1272540356398082 0.08951517349776593,-0.1225703750319269 l0.06254717522802622,-0.12139510932190944 0.035832959330477365,-0.12372823850962787 l0.00937252580510517,-0.12956976259511066 -0.01683412534808326,-0.13891968157837198 l-0.04278699412910214,-0.15177799545939763 -0.06848608053794436,-0.1681447042382018 l-0.09393138457460282,-0.18801980791475612 0.0,0.0 l-0.06984233725520994,-0.49205332264109813 0.03759969825177478,-0.9184604064430175 l0.12699551389253114,-1.2346785405570415 0.19834510966705207,-1.4407077249831701 l0.25164848557540864,-1.536547959721332 0.2869056416175013,-1.5221992447715278 l0.30411657779341533,-1.397661580133814 0.3032812941031011,-1.1629349658081762 l0.2843997905465798,-0.8180194017945722 0.0,0.0 l0.07280973428885316,-0.16089371952203632 0.05687348948621462,-0.11434279636574729 l0.04171161852546845,-0.06562972090193853 0.027324121406586244,-0.014754493130567425 l0.013710998129617735,0.038282886948394435 0.0008722486945487162,0.0934824193349044 l-0.011192126898627919,0.15084410402900517 -0.02248212864991927,0.21036794103065404 l-0.03299775655930404,0.27205393033987946 0.0,0.0 l-0.20997384737206914,1.9135430636270172 -0.15717727265391798,1.952664334784046 l-0.1043898918852335,1.976088702453495 -0.05161170506605828,1.9838161666354495 l0.0011572878036929524,1.9758467273299374 0.05391708672397044,1.952180384536959 l0.10666769169478128,1.912817138256429 0.15940910271611838,1.8577569884884042 l0.21214131978800307,1.7869999352329415 0.0,0.0 l0.7069539085058736,3.991310187896616 0.9912585471173685,3.7079699290903676 l1.2741914956181404,3.4225039360220393 1.5557527540082177,3.1349122086916306 l1.8359423222876143,2.8451947470992422 2.1147602004563026,2.553351551244859 l2.39220638851431,2.2593826211284096 2.6682808864616163,1.9632879567499089 l2.9429836942982344,1.6650675581094416 0.0,0.0 l1.7039969132663018,0.7900304705770508 1.6619768336995904,0.6664677527172528 l1.6513892328262472,0.5489581538731869 1.672234110646414,0.43750167404488133 l1.7245114671600419,0.33209831323240735 1.8082213023671159,0.23274807143572218 l1.923363616267622,0.13945094865479743 2.0699384088616313,0.05220694488969002 l2.2479456801490585,-0.028983939859642757 0.0,0.0 l1.221604351170086,-0.038785927614597426 1.0325110293645992,-0.04296511503802947 l0.8826583911000937,-0.05182576757573542 0.7720464363764279,-0.0653678852277153 l0.7006751651937718,-0.08359146799386961 0.6685445775520407,-0.10649651587431207 l0.6756546734512625,-0.13408302886897158 0.7220054528913663,-0.16635100697790506 l0.8075969158724661,-0.20330045020102716 0.0,0.0 l3.788715571201152,-1.2211012582535545 3.462864264371177,-1.6169298285981029 l3.1332108646603554,-2.0084681305726373 2.799755372068716,-2.3957161641771876 l2.462497786596259,-2.7786739294116383 2.1214381082430123,-3.157341426276076 l1.7765763370089473,-3.531718654770458 1.42791247289405,-3.9018056148948257 l1.075446515898349,-4.267602306649124 0.0,0.0 l0.36808487965842573,-2.042610058223943 0.28926627445926556,-2.0907210927537534 l0.21048495655236366,-2.1404102070958255 0.13174092593762055,-2.1916774012500464 l0.05303418261517834,-2.244522675216416 -0.02563527341501981,-2.2989460289949473 l-0.10426744215294548,-2.354947462585642 -0.18286232359869814,-2.412526975988513 l-0.2614199177521357,-2.471684569203532 0.0,0.0 l-0.06729782378576488,-0.577006899015771 -0.05988197386098193,-0.547422094874662 l-0.05168051468591272,-0.5082627168454081 -0.0426934462606141,-0.4595287649280379 l-0.03292076858488713,-0.4012202391224662 -0.02236248165885968,-0.33333713942876386 l-0.011018585482531762,-0.25587946584691673 0.001110919944125044,-0.16884721837692496 l0.014026034621110739,-0.07224039701875994 0.0,0.0 l0.08898145494370624,0.07826366695050523 0.1333291938194634,0.3329936878898678 l0.16730012279295178,0.5449817927657533 0.19089424186414303,0.7142279815781478 l0.20411155103317924,0.8407322543271504 0.20695205029990402,0.9244946110126903 l0.19941573966441695,0.9655150516348101 0.18150261912664686,0.9637935761934386 l0.15321268868669335,0.919330184688647 0.0,0.0 l0.0750800166714356,0.5530864197530718 0.0829539352956914,0.7253086419753174 l0.08860311285175726,0.8716049382716307 0.09202754933970425,0.9919753086419547 l0.09322724475953235,1.0864197530864175 0.0922021991112416,1.1549382716049335 l0.08895241239481776,1.197530864197546 0.08347788461028927,1.2141975308641832 l0.07577861575761347,1.204938271604945 0.0,0.0 l0.07363632221233729,1.190775034293523 0.07730517439514983,1.173388203017879 l0.07913054114074214,1.132596021947876 0.07911242244912842,1.0683984910836557 l0.07725081832032288,0.980795610425261 0.07354572875436814,0.86978737997255 l0.06799715375117897,0.7353737997256501 0.06060509331082641,0.5775548696845049 l0.05136954743328204,0.3963305898491 0.0,0.0 l0.41098683486907817,2.1000976273867735 0.549365650729527,1.8547940941900547 l0.696637378645832,1.6198069019693546 0.852802018617993,1.3951360507246162 l1.017859570646067,1.1807815404559818 1.1918100347300253,0.9767433711632947 l1.3746534108698965,0.7830215428466828 1.5663896990656097,0.5996160555060328 l1.7670188993172216,0.4265269091414296 0.0,0.0 l2.123811759000702,0.2201421444888609 1.99214246645532,-0.13324935554614115 l1.8436449253597686,-0.47406631527063325 1.6783191357140053,-0.8023087346844874 l1.49616509751813,-1.1179766137876752 1.2971828107721421,-1.4210699525802966 l1.0813722754759851,-1.711588751062294 0.8487334916296447,-1.9895330092336962 l0.5992664592331778,-2.2549027270944464 0.0,0.0 l0.15867549735654052,-1.016647777975436 0.10285587043125588,-1.1330149266402714 l0.04811825581529661,-1.2245586475662407 -0.0055373464914509896,-1.291278940753216 l-0.05811093648881637,-1.3331758062011971 -0.10960251417694165,-1.3502492439102411 l-0.16001207955571314,-1.342499253880291 -0.20933963262521615,-1.3099258361114037 l-0.2575851733853938,-1.2525289906035368 0.0,0.0 l-0.9470231923119172,-3.3957023279264575 -1.2502008694112872,-3.3686842776221506 l-1.523950239437312,-3.296869324847208 -1.768271302389877,-3.180257469601585 l-1.983164058268926,-3.018848711885226 -2.1686285070745726,-2.812643051698188 l-2.3246646488067313,-2.5616404890404634 -2.4512724834654733,-2.265841023912031 l-2.548452011050742,-1.9252446563129126 0.0,0.0 l-1.9290485441887455,-1.2973600221253534 -0.008451455811254505,-1.6711559839185737 l0.0,0.0 -0.04191101960283561,-1.0584941256719418 l-0.11379829748544522,-1.0782094600540333 -0.18365768371099023,-1.0909241487221166 l-0.251489178279499,-1.0966381916761776 -0.3172927811908295,-1.0953515889161451 l-0.38106849244513796,-1.0870643404420972 -0.4428163120423249,-1.0717764462539918 l-0.5025362399824473,-1.0494879063518496 -0.560228276265434,-1.0201987207356495 l0.0,0.0 -0.188687386323366,-0.2947908296927437 l-0.25238437012158954,-0.3527451896351792 -0.3068239167908047,-0.3997067328194816 l-0.3520060263309972,-0.43567545924561557 -0.3879306987420392,-0.46065136891357383 l-0.41459793402405865,-0.4746344618233848 -0.4320077321769844,-0.47762473797501315 l-0.4401600932008591,-0.46962219736848 -0.439055017095626,-0.4506268400037783 l0.0,0.0 -0.8615671577073839,-0.8325073017549229 l-0.843113156789741,-0.7441850402050321 -0.838116487661125,-0.6640493729004007 l-0.846577150321508,-0.5921002998410572 -0.8684951447708329,-0.528337821026966 l-0.9038704710091564,-0.4727619364581699 -0.9527031290364504,-0.4253726461346119 l-1.0149931188527146,-0.38616995005634885 -1.0907404404579495,-0.3551538482233383 l0.0,0.0 -0.6060459629259753,-0.18934402638257095 l-0.4495529810381384,-0.1604662130095491 -0.29082830145198096,-0.13985763188787104 l-0.12987192416763094,-0.12751828301756518 0.033316150815124956,-0.12344816639858179 l0.19873592349615876,-0.12764728203094933 0.3663873938754847,-0.14011562991467486 l0.5362705619531027,-0.16085321004974415 0.7083854277290413,-0.1898600224361502 l0.0,0.0 1.3125410237344821,-0.2610269831060563 l1.306908707498479,-0.10034197680568013 1.2946034268923794,0.05836850677259519 l1.2756251819162259,0.21510446762877675 1.2499739725700605,0.36986590576290723 l1.2176497988538983,0.522652821174951 1.178652660767682,0.6734652138649152 l1.1329825583114113,0.8223030838327929 1.0806394914851296,0.9691664310786193 l0.0,0.0 0.52426736969187,0.5103382645916241 l0.43743566646588755,0.4020243976833839 0.36342916228343825,0.2992977304074671 l0.302247857144593,0.20215826276388782 0.25389175104938033,0.11060599475266741 l0.21836084399778596,0.024640926373812988 0.19565513598975312,-0.05573694237271808 l0.18577462702535286,-0.1305276114868974 0.18871931710455667,-0.19973108096871783 l0.0,0.0 0.5494398430783605,-0.6427471085279493 l0.5529071369417977,-0.6200237968935696 0.5475731347083723,-0.5886781677003653 l0.5334378363780559,-0.5487102209482586 0.5105012419509761,-0.5001199566372989 l0.47876335142703397,-0.4429073747674437 0.43822416480627163,-0.37707247533873556 l0.388883682088661,-0.3026152583511674 0.3307419032742587,-0.21953572380469666 l0.0,0.0 1.2954149773610624,-0.651424899561377 l1.3505484721742533,-0.4745799761786813 1.3894374589945073,-0.29833464956600864 l1.4120819378219946,-0.12268891972333051 1.4184819086566873,0.05235721334935305 l1.408637371498557,0.22680374965202077 1.3825483263476315,0.4006506891847152 l1.3402147732038827,0.5738980319473796 1.2816367120673533,0.7465457779400708 l0.0,0.0 0.7333287505228725,0.5228883148007455 l0.6617097103044215,0.5449068190263587 0.5975179677776055,0.5770803480209494 l0.5407535229424241,0.619408901784567 0.4914163757990764,0.6718924803172114 l0.4495065263473634,0.7345310836188546 0.41502397458742735,0.8073247116895388 l0.387968720519126,0.8902733645292074 0.36834076414260153,0.9833770421379099 l0.0,0.0 0.2004008301263127,0.5353202056929333 l0.19607508166208729,0.4182095671418011 0.20865097069608393,0.3072723593926198 l0.23812849722835946,0.20250858244533274 0.2845076612589992,0.10391823630006058 l0.3477884627879461,0.01150132095671097 0.4279709018152004,-0.07474216358469477 l0.5250549783407052,-0.15481221732414238 0.6390406923646026,-0.22870884026163904 l0.0,0.0 2.2624114240709616,-0.5920615513820806 l2.253910187573723,-0.10966748229504474 2.1892413768186145,0.33901417463808053 l2.0684049918056644,0.7539834194173308 1.8914010325348725,1.1352402520427063 l1.6582294990062678,1.4827846725141924 1.3688903912198214,1.7966166808317965 l1.023383709175505,2.076736276995518 0.6217094528733753,2.3231434610053583 l0.0,0.0 0.05799474057832298,0.3261354375450977 l0.06395357734535878,0.3151158206937765 0.06820423136829845,0.2982083346844604 l0.07074670264702831,0.275412979517128 0.07158099118177574,0.24672975519182924 l0.07070709697231337,0.21215866170854977 0.06812502001881171,0.17169969906727542 l0.06383476032115709,0.12535286726801328 0.057836317879434766,0.0731181663107705 l0.0,0.0 0.08044677864822347,0.04503806482481565 l0.11963890090126483,0.03559559193828931 0.15604488102187017,0.026067752860924998 l0.1896647190102669,0.01645454759278664 0.22049841486636976,0.006755976133874242 l0.24854596859015032,-0.003027961515826405 0.2738073801816654,-0.012897265356301089 l0.29628264964085815,-0.022851935387578234 0.31597177696781387,-0.03289197160963653 l0.0,0.0 2.090030057642423,-0.068131618069323 l2.002596838056462,0.2758194287753355 1.8838147289813492,0.5962146810403297 l1.7336837304172263,0.8930541387256525 1.5522038423641504,1.1663378018313608 l1.3393750648220075,1.4160656703573975 1.0951973977908835,1.6422377443038056 l0.819670841270721,1.8448540236705426 0.5127953952615769,2.0239145084576506 l0.0,0.0 0.06498870656488975,0.42841828311608765 l0.04539282569996317,0.3960850682660179 0.025084249767644447,0.37966522556999394 l0.004062978768018865,0.3791587550280724 -0.017670987298828322,0.39456565664025334 l-0.040117648433067636,0.4258859304065652 -0.06327700463461383,0.4731195763269369 l-0.08714905590343847,0.5362665944014111 -0.11173380223954153,0.615326984630002 l0.0,0.0 -0.10410349412975961,0.5698060695054181 l-0.08149093813887019,0.4862965191391595 -0.059270666108744756,0.4095610201127897 l-0.03744267803932644,0.3395995724263088 -0.016006973930387858,0.27641217607978774 l0.005036446217872026,0.21999883107316975 0.025687582405453213,0.17035953740645482 l0.04594643463241255,0.12749429507967136 0.0658130028987216,0.09140310409280515 l0.0,0.0 0.07809714939043033,0.05801407931600976 l0.12251585521389075,0.06464938211664162 0.1615953846691127,0.06951961424044838 l0.19533573775618152,0.07262477568737324 0.22373691447506872,0.07396486645751565 l0.246798914825888,0.07353988655083299 0.2645217388084973,0.07134983596732525 l0.2769053864229533,0.067394714706964 0.2839498576692563,0.061674522769791906 l0.0,0.0 1.4315027818367125,0.3862107467882936 l1.3557075612701224,0.5532770478468477 1.2667599318434952,0.7080517335017474 l1.1646598935566883,0.8505348037530495 1.0494074464099297,0.9807262586007965 l0.9210025904030202,1.0986260980449458 0.7794453255360168,1.2042343220855116 l0.624735651808919,1.2975509307224513 0.45687356922181266,1.378575923955836 l0.0,0.0 0.30622903736662005,1.6812750800303746 l0.051857551200271246,1.6744013587289999 -0.19243013234495265,1.644081266794984 l-0.4266340132689095,1.5903148042282993 -0.6507540915715707,1.513101971029073 l-0.8647903672529935,1.412442767197163 -1.0687428403131776,1.2883371927326692 l-1.262611510752123,1.1407852476355058 -1.4463963785697727,0.969786931905773 l0.0,0.0 -0.33315606332612896,0.1950504128149504 l-0.27370501512342565,0.1726565422046349 -0.2196626950799043,0.1562456189963086 l-0.17102910319533748,0.14581764319002843 -0.1278042394698673,0.14137261478592222 l-0.08998810390340849,0.14291053378380525 -0.057580696495961085,0.15043140018380538 l-0.030582017247667178,0.16393521398586583 -0.008992066158299393,0.18342197519001502 l0.0,0.0 0.008614142033962935,0.1786804811710141 l0.028459425716818032,0.16067763379298583 0.05223020882164064,0.14743333111249513 l0.07992649134848762,0.13894757312954198 0.11154827329758632,0.13522035984419745 l0.14709555466870938,0.13625169125640468 0.18656833546191362,0.1420415673662063 l0.2299666156771991,0.15258998817357394 0.2772903953145942,0.16789695367850752 l0.0,0.0 1.3170295066332753,0.9136077904217074 l1.1645167789681636,1.0939984313121442 1.0000298930868041,1.2466940491275835 l0.8235688489893107,1.3716946438680822 0.6351336466756833,1.4690002155337112 l0.4347242861459222,1.5386107641244136 0.22234076740005548,1.5805262896401755 l-0.0020169095620019557,1.594746792080997 -0.23834874474016488,1.5812722714469487 l0.0,0.0 -0.377687075552501,1.2580714317182498 l-0.536726563403704,1.2178331912865588 -0.6806359592706882,1.1612221296372383 l-0.8094152631534541,1.0882382467704728 -0.9230644750518024,0.9988815426862344 l-1.0215835949659606,0.8931520173844517 -1.104972622895815,0.7710496708652385 l-1.173231558841394,0.6325745031284669 -1.2263604028026405,0.4777265141742361 l0.0,0.0 -0.5530397604026973,0.19726817486208859 l-0.43719871542415945,0.20856809029187673 -0.3234901813100066,0.22563395998599844 l-0.21191415806003985,0.2484657839445816 -0.10247064567428765,0.2770635621676405 l0.004840355847193223,0.31142729465513236 0.110018846504488,0.3515569814070574 l0.21306482629751144,0.3974526224234011 0.31397829522637716,0.44911421770422066 l0.0,0.0 0.4123764741399327,0.5824142736854724 l0.3787660887133768,0.6196749723402775 0.34266211484430187,0.6503731533734936 l0.3040645525326226,0.6745088167853055 0.2629734017785097,0.6920819625756421 l0.2193886625818777,0.7030925907444896 0.17331033494275513,0.7075407012918902 l0.12473841886105674,0.7054262942178154 0.07367291433689614,0.6967493695222656 l0.0,0.0 0.032146458576477244,1.1214779326604258 l-0.06046017764776934,1.0817950045985327 -0.15362410968774043,1.043698142231392 l-0.24734533754337917,1.0071873455589182 -0.34162386121454347,0.972262614581382 l-0.4364596807013754,0.9389239492984983 -0.5318527960037613,0.9071713497104668 l-0.6278032071218433,0.8770048158171732 -0.7243109140555077,0.8484243476187032 l0.0,0.0 -1.323938361968942,1.2262040479670304 l-1.4597877413341678,0.983084778253982 -1.567420906370273,0.7361315895225288 l-1.6468378570773152,0.4853444817728984 -1.6980385934550668,0.230723455004977 l-1.7210231155036408,-0.027731490781206954 -1.7157914232231235,-0.29002035558565353 l-1.6823435166134004,-0.5561431394083342 -1.6206793956744718,-0.8260998422492775 l0.0,0.0 -0.4248836100244659,-0.2371874111043155 l-0.39647168441689473,-0.1784913069499794 -0.3639023179379137,-0.11976310396889289 l-0.32717551058755134,-0.0610028021610276 -0.28629126236575075,-0.002210401526269834 l-0.24124957327251192,0.056614097935209884 -0.1920504433078065,0.11547069622355365 l-0.13869387247174814,0.1743593933386762 -0.0811798607641947,0.23328018928066285 l0.0,0.0 -0.009534868328643142,0.10667385402817331 l0.002031564926824103,0.1554667598643391 0.012831250509748315,0.19795871637157347 l0.02286418842010107,0.23414972354996166 0.03213037865796764,0.2640397813995321 l0.04062982122331959,0.2876288899201995 0.04836251611612852,0.3049170491120776 l0.055328463336479665,0.3159042589750811 0.06152766288425937,0.32059051950920997 l0.0,0.0 0.17869698027894287,1.4320264859054248 l-0.028048496546716702,1.4428236872787181 -0.22621048202137217,1.4340885855445151 l-0.4157889761451372,1.405821180702901 -0.5967839789177845,1.3580214727539612 l-0.769195490339456,1.2906894616975533 -0.9330235104101517,1.2038251475338198 l-1.0882680391298152,1.097428530262647 -1.2349290764984744,0.9714996098840913 l0.0,0.0 -0.9393239574567643,0.5670168794812298 l-1.0208159744547913,0.46579316922861835 -1.0848017964196683,0.36232638783690163 l-1.131281423351055,0.2566165353061365 -1.1602548552489793,0.14866361163649344 l-1.1717220921135834,0.038467616827801976 -1.1656831339447251,-0.07397144911982423 l-1.1421379807425183,-0.1886535862064704 -1.1010866325068775,-0.3055787944320798 l0.0,0.0 -0.9610448525029938,-0.38309947014946033 l-0.9418753117535061,-0.48526780493219235 -0.908895015663262,-0.5750713811999617 l-0.8621039642322614,-0.6525101989527116 -0.801502157460419,-0.717584258190385 l-0.7270895953476781,-0.7702935589130391 -0.6388662778942659,-0.8106381011205883 l-0.5368322050999552,-0.8386178848131749 -0.42098737696485955,-0.8542329099906567 l0.0,0.0 -0.1524857970810558,-0.3356499254488483 l-0.15771408128597386,-0.2883542337865208 -0.16411321168925497,-0.2420475361866465 l-0.17168318829084225,-0.19672983264925392 -0.18042401109059367,-0.152401123174144 l-0.1903356800886797,-0.10906140776143047 -0.20141819528504357,-0.06671068641111333 l-0.2136715566796283,-0.02534895912319257 -0.2270957642725193,0.01502377410236022 l0.0,0.0 -0.13706454532109547,0.033422004973601815 l-0.12519274759148402,0.060782198698859695 -0.11654928564632881,0.09329111586666272 l-0.11113415948577199,0.13094875647701087 -0.10894736910961456,0.17375512053001785 l-0.10998891451797022,0.2217102080256552 -0.11425879571081053,0.27481401896389457 l-0.12175701268813555,0.33306655334470747 -0.13248356544997364,0.3964678111681792 l0.0,0.0 -0.38851590411641723,1.0549063611350107 l-0.4657395183266004,1.004251945720796 -0.5389359198240271,0.9486759689449683 l-0.6081051086085552,0.8881784308076419 -0.6732470846800567,0.8227593313088732 l-0.7343618480387732,0.7524186704485771 -0.7914493986845058,0.6771564482267819 l-0.844509736617411,0.5969726646434879 -0.8935428618373464,0.5118673196986663 l0.0,0.0 -0.7822724120484565,0.35153499256887244 l-0.8419098474498979,0.29098596548456607 -0.8861865975787708,0.2287916761155486 l-0.9151026624349042,0.16495212446181995 -0.9286580420182985,0.09946731052346534 l-0.9268527363289961,0.03233723430051327 -0.9096867453669688,-0.03643810420717841 l-0.8771600691322874,-0.10685870499943916 -0.8292727076247955,-0.1789245680764111 m-38.894280214640844,-36.891426165516066 l-0.2981168075450426,-0.5261155255775805 -0.24759472648602807,-0.47696918343382316 l-0.20283319260501287,-0.44759066382127344 -0.16383220590206804,-0.4379799667399453 l-0.1305917663770515,-0.44813709218978204 -0.10311187403010535,-0.4780620401707978 l-0.08139252886114434,-0.5277548106829925 -0.06543373087019688,-0.597215403726409 l-0.055235480057248765,-0.6864438193009477 0.0,0.0 l-0.0690340218768597,-0.9956433605967163 -0.03135995622044163,-0.7700614083812809 l0.033097339435869344,-0.5750846889121561 0.12433786509215848,-0.41071320218932783 l0.24236162074838316,-0.27694694821269644 0.3871686064046144,-0.17378592698239 l0.5587588220607529,-0.10123013849832319 0.7571322677168837,-0.05927958276055278 l0.9822889433729642,-0.047934259769007774 0.0,0.0 l1.0405897629382537,-0.07275276650864271 1.01979922236076,-0.11804882615302857 l0.9969216015232831,-0.16279133280794156 0.9719569004258517,-0.20698028647332478 l0.9449051190684372,-0.2506156871491356 0.9157662574510964,-0.29369753483544514 l0.8845403155737727,-0.33622582953219643 0.8512272934364802,-0.37820057123943224 l0.8158271910392471,-0.4196217599571099 0.0,0.0 l0.5023084398848141,-0.27624615697405375 0.381199539176066,-0.21194900515139634 l0.27339744044094516,-0.16184070533010694 0.17890214367947974,-0.125921257510214 l0.0977136488916983,-0.1041906616915753 0.029831956077558175,-0.09664891787429042 l-0.024742934762898017,-0.10329602605834509 -0.06601102362972709,-0.12413198624372512 l-0.09397231052284381,-0.15915679843043049 0.0,0.0 l-0.19626699416011203,-0.3403600734471297 -0.16597575358791516,-0.2569958375703294 l-0.1565939350675478,-0.1755535264910577 -0.16812153859889634,-0.09603314020930041 l-0.2005585641819891,-0.018434678724986497 -0.25390501181684044,0.057241857961827236 l-0.32816088150343603,0.1309964698511834 -0.4233261732417759,0.20282915694301093 l-0.5394008870318601,0.2727399192374093 0.0,0.0 l-1.3482081717293253,0.6074633801494969 -1.4311237034043245,0.5000927777337836 l-1.493791188095912,0.39057691026037844 -1.5362106258039459,0.27891577772929566 l-1.5583820165284124,0.1651093801406489 -1.560305360269382,0.049157717494296094 l-1.5419806570267838,-0.0689392102096349 -1.5034079068006747,-0.18918140297125774 l-1.444587109591026,-0.31156886079045876 0.0,0.0 l-0.828467176922146,-0.24657403245088005 -0.8535323730335023,-0.30448637216959185 l-0.8635393154148544,-0.35464487064983524 -0.858488004066146,-0.3970495278915535 l-0.8383784389873908,-0.431700343894704 -0.8032106201785894,-0.45859731865935766 l-0.7529845476397553,-0.477740452185472 -0.6877002213708749,-0.48912974447307533 l-0.6073576413719479,-0.49276519552211084 0.0,0.0 l-0.23455712576270568,-0.20218286746650446 -0.2276668155154269,-0.19032551400081843 l-0.21645551761384496,-0.17523772064876653 -0.200923232057967,-0.15691948741040562 l-0.18106995884773622,-0.13537081428566466 -0.15689569798319525,-0.11059170127452944 l-0.12840044946432982,-0.08258214837705678 -0.09558421329115417,-0.05134215559323252 l-0.05844698946363991,-0.016871722922999766 0.0,0.0 l-0.045030627894668385,0.0116609967757455 -0.05692690029577107,0.030870765572814207 l-0.0668898426099247,0.04823311736062407 -0.07491945483714346,0.06374805213923196 l-0.08101573697737052,0.07741556990868048 -0.0851786890306414,0.08923567066895542 l-0.08740831099695612,0.09920835442005681 -0.08770460287632886,0.10733362116192778 l-0.08606756466870989,0.11361147089466783 0.0,0.0 l-0.1302639839006687,0.18199574940101113 -0.09798444700209075,0.14913629761278457 l-0.06588310025269804,0.12413916195086472 -0.03395994365248356,0.10700434241530841 l-0.002214977201404622,0.09773183900615832 0.02935179910051744,0.0963216517233718 l0.06074038525328262,0.10277378056699149 0.0919507812568696,0.1170882255369463 l0.12298298711131393,0.13926498663329312 0.0,0.0 l0.7012443144644323,0.684385059452964 0.8595217355144554,0.6891380207603959 l0.9897100111538534,0.6790839533806262 1.0918091413825977,0.6542228573137265 l1.1658191262007591,0.6145547325597107 1.211739965608288,0.5600795791186215 l1.229571659605227,0.4907973969903452 1.2193142081915198,0.406708186174967 l1.180967611367208,0.30781194667247286 0.0,0.0 l0.66293762582319,0.1457848825471899 0.09370388957009368,3.3139017564373745 l0.0,0.0 0.02759486402948141,0.849513440766998 l0.032498984955537935,0.7194845665312073 0.040080470939045654,0.6081359161638886 l0.05033932197996194,0.515467489665042 0.0632755380784289,0.4414792870347384 l0.07888911923433282,0.38617130827289253 0.09718006544770219,0.3495435533795756 l0.11814837671855116,0.33159602235470226 0.14179405304690815,0.3323287151984146 l0.0,0.0 0.5560969048598422,1.2198185429300707 l-1.463869667053217,-0.1656180067926698 0.0,0.0 l-0.7178777111637088,-0.10239757114295855 -0.8188275998431322,-0.15334788797885324 l-0.8932322595439359,-0.19705180825505408 -0.9410916902661484,-0.2335093319715753 l-0.9624058920097126,-0.262720459128289 -0.9571748647746716,-0.2846851897252946 l-0.9253986085610392,-0.2994035237625638 -0.8670771233687731,-0.3068754612401108 l-0.7822104091978729,-0.307101002157907 0.0,0.0 l-1.3386866612027504,-0.6217254195964301 -1.3522748345756737,-0.7491306912122155 l-1.3459589050834635,-0.8603709943676563 -1.3197388727260344,-0.9554463290626671 l-1.2736147375033724,-1.0343566952971344 -1.2075864994155123,-1.0971020930711857 l-1.1216541584624622,-1.1436825223848075 -1.0158177146442,-1.1740979832379423 l-0.8900771679607259,-1.1883484756306473 0.0,0.0 l-1.4396680391475272,-2.28789126549313 -1.2466583903191975,-2.4122637878625284 l-1.0561005283036946,-2.5468652798165863 -0.8679944531010193,-2.691695741355232 l-0.6823401647111282,-2.8467551724784665 -0.4991376631340642,-3.012043573186318 l-0.31838694836979187,-3.187560943478743 -0.14008802041833945,-3.3733072833557713 l0.03575912072030717,-3.5692825928174012 0.0,0.0 l0.06702395211274847,-1.4794369315832794 0.10196480904506444,-1.5836372771324818 l0.12921136508001038,-1.6172809563587975 0.14876362021759348,-1.580367969262312 l0.16062157445788472,-1.4728983158428548 0.16478522780081306,-1.2948719961005395 l0.16125458024639983,-1.0462890100353377 0.1500296317946379,-0.7271493576472635 l0.1311103824455557,-0.3374530389362888 0.0,0.0 l0.03497516049612415,-0.01515010841892206 0.06007606617337302,-0.0029530347639621364 l0.08235097339403552,0.008541850113402916 0.10179988215812585,0.01933454621320152 l0.11842279246566532,0.029425053535490516 0.13221970431662555,0.03881337208021307 l0.1431906177110278,0.04749950184739759 0.1513355326488579,0.05548344283698725 l0.15665444913013005,0.0627651950490673 0.0,0.0 l0.6689176118689346,0.24431238912130482 0.7664209825260356,0.2177009173048532 l0.8482403466529361,0.18904748154318438 0.9143757042496289,0.15835208183632687 l0.9648270553161709,0.1256147181843232 0.9995943998525121,0.09083539058711665 l1.0186777378586669,0.054014099044735524 1.022077069334614,0.015150843557165672 l1.0097923942804243,-0.025754375875578713 0.0,0.0 l1.148546767731851,-0.06904778774888598 1.0417234636141472,-0.09800431832621825 l0.9617896599565298,-0.1338532476736276 0.9087453567590557,-0.17659457579104298 l0.8825905540217605,-0.2262283026784928 0.88332525174458,-0.28275442833592024 l0.9109494499275286,-0.34617295276339627 0.9654631485706489,-0.4164838759608784 l1.0468663476738982,-0.493687197928395 0.0,0.0 l0.6890348517861752,-0.3425300750728155 0.5970078396121039,-0.31397337430655625 l0.5256991965227229,-0.3001554594789724 0.4751089225180323,-0.3010763305900497 l0.4452370175981031,-0.3167359876397313 0.43608348176289263,-0.34713443062804566 l0.4476483150124153,-0.39227165955497867 0.47993151734662826,-0.45214767442058695 l0.5329330887656027,-0.5267624752247997 0.0,0.0 l0.36900908250228776,-0.3798556748897965 0.36730270164152046,-0.3953079963221313 l0.35803582899120556,-0.40154067145928707 0.34120846455139997,-0.39855370030120696 l0.3168206083220894,-0.3863470828478625 0.28487226030328827,-0.36492081909928936 l0.24536342049495374,-0.3342749090555017 0.19829408889714273,-0.29440935271647817 l0.1436642655098268,-0.24532415008220454 0.0,0.0 l0.11343415205072915,-0.21274005486969116 0.11119037215071614,-0.20052297668036798 l0.10676603590721356,-0.18488511659808182 0.10016114332033509,-0.16582647462278285 l0.09137569439006653,-0.14334705075445697 0.08040968911640789,-0.11744684499314673 l0.06726312749933072,-0.0881258573388095 0.05193600953886346,-0.05538408779150216 l0.0344283352350061,-0.019221536351160747 0.0,0.0 l0.029418740805823514,0.018845565127435293 0.03750158491249067,0.05430078087569967 l0.04429541066735964,0.08640212486398013 0.049800218070430446,0.11514959709226247 l0.05401600712175991,0.14054319756061773 0.05694277782131962,0.16258292626898196 l0.05858053016910958,0.1812687832173907 0.05892926416510136,0.19660076840580132 l0.057988979809380226,0.20857888183428486 0.0,0.0 l0.3165653104042718,0.9994213715402722 0.4196004054478095,1.0272182859076722 l0.5152385507354325,1.0437416239983293 0.603479746267169,1.0489913858123145 l0.6843239920431188,1.0429675713496493 0.7577712880631678,1.0256701806102768 l0.8238216343273733,0.9970992135942254 0.882475030835721,0.9572546703014665 l0.9337314775882106,0.9061365507320714 0.0,0.0 l0.7104487008679001,0.5968587308418734 0.8278866179042125,0.6031919385353177 l0.9183423470629178,0.5953003670707061 0.9818158883439451,0.5731840164481098 l1.0183072417474077,0.5368428866675714 1.0278164072731926,0.4862769777290339 l1.0103433849214267,0.4214862896325115 0.9658881746919548,0.34247082237801857 l0.8944507765849322,0.24923057596554088 0.0,0.0 l1.7674656870422039,0.33221175729781294 1.7846720844353428,0.181415399478837 l1.7864501760928988,0.03289573095293008 1.7727999620148864,-0.11334724827996467 l1.7437214422014617,-0.2573135382197335 1.699214616652469,-0.3990031388664903 l1.6392794853679504,-0.5384160502201496 1.5639160483478916,-0.6755522722807824 l1.4731243055923642,-0.8104118050483037 0.0,0.0 l1.7189183760454654,-1.0597840002108823 0.13850959168765087,0.6925479584382969 l0.0,0.0 0.1356156090709817,0.8318289835429623 l0.12341492540770105,1.0562663158056296 0.10899675528968089,1.2365245270989504 l0.09236109871686438,1.372603617422996 0.07350795568933675,1.4645035867777523 l0.05243732620706964,1.5122244351632614 0.029149210270048794,1.5157661625794674 l0.0036436078782884347,1.4751287690263695 -0.02407948096821144,1.3903122545040247 l0.0,0.0 -0.04826678981490318,1.2949680314657002 l-0.06807919128495143,1.3008252935302949 -0.08414617143345991,1.2679584957926833 l-0.0964677302605139,1.196367638252795 -0.10504386776594288,1.0860527209107573 l-0.10987458394981785,0.9370137437664852 -0.1109598788121815,0.7492507068200212 l-0.10829975235299115,0.5227636100713227 -0.10189420457221843,0.2575524535204181 l0.0,0.0 -0.030015904633501123,0.003904593052823202 l-0.05755592182458713,-0.022013548352219914 -0.08216980040602094,-0.045849058123138775 l-0.10385754037783101,-0.06760193625999023 -0.12261914173981836,-0.0872721827627174 l-0.13845460449216773,-0.10485979763132036 -0.15136392863479387,-0.12036478086582747 l-0.16134711416773936,-0.13378713246622453 -0.16840416109094747,-0.14512685243248313 l0.0,0.0 -0.18847170880512465,-0.15614811967557785 l-0.21916886181860207,-0.16554332621737444 -0.2433685329851869,-0.17089448915815808 l-0.2610707223048649,-0.17220160849782928 -0.27227542977747987,-0.16946468423638802 l-0.2769826554031453,-0.1626837163738486 -0.27519239918188987,-0.15185870491022513 l-0.2669046611136423,-0.13698964984550344 -0.25211944119844526,-0.11807655117968352 l0.0,0.0 -0.6020473321864442,-0.23055154044543258 l-0.8597912089282714,-0.2830088379501916 -1.0316991265161306,-0.3123185704080953 l-1.11777108495005,-0.31848073781915787 -1.1180070842298875,-0.30149534018326557 l-1.0324071243557853,-0.26136237750051805 -0.8609712053276438,-0.1980818497708725 l-0.6036993271455628,-0.11165375699437162 -0.26059148980942837,-0.0020780991709443697 l0.0,0.0 0.010294723509716164,0.05091616343504768 l0.06356259148219578,0.11280776073192555 0.11216774563412457,0.16846860891836002 l0.15611018596557358,0.21789870799433683 0.19538991247662804,0.2610980579599555 l0.23000692516716012,0.29806665881515926 0.2599612240372693,0.32880451055994797 l0.28525280908688444,0.3533116131943359 0.3058816803160482,0.37158796671832306 l0.0,0.0 0.9678012167256752,1.2089528442329396 l0.8469854091262192,1.1545163869323716 0.7304646145852303,1.1088661284302077 l0.6182388331027653,1.0720020687264622 0.5103080646788811,1.0439242078212203 l0.4066723093135636,1.0246325457144108 0.30733156700675573,1.014127082406034 l0.21228583775845777,1.0124078178961184 0.121535121568769,1.0194747521846494 l0.0,0.0 0.04858170022565389,1.2346540868866356 l-0.05967653994004252,1.12655633814353 -0.1815286731573735,1.0468259789578267 l-0.31697469942622547,0.9954630093295265 -0.46601461874659833,0.9724674292587423 l-0.6286484311185062,0.9778392387453464 -0.8048761365419779,1.0115784377894383 l-0.9946977350169561,1.0736850263909048 -1.1981132265434837,1.1641590045499013 l0.0,0.0 -1.5769250239739703,1.3530915964435621 l-1.6878956567895924,1.217238252812777 -1.7949835239795815,1.0798291990600433 l-1.8981886255439802,0.9408644351855314 -1.997510961482632,0.800343961189256 l-2.0929505317956796,0.6582677770711456 -2.1845073364830796,0.5146358828312145 l-2.272181375544818,0.3694482784694912 -2.355972648980881,0.22270496398596148 l0.0,0.0 -2.656054173907435,0.16492709907215897 l-0.6410344900027383,-1.0981757230605778 m17.09776093162347,-22.387232916599075 l-0.15436895550331542,-0.6709367038178726 -0.08943241731719809,-0.6638623094383148 l-0.02499398579234935,-0.6537502291272971 0.03894633907128764,-0.6406004628847625 l0.1023885572737555,-0.6244130107106541 0.1653326688150116,-0.6051878726050433 l0.22777867369502758,-0.5829250485679012 0.2897265719138602,-0.5576245385992138 l0.35117636347148107,-0.5292863426989953 0.0,0.0 l0.2886902049534541,-0.36490892543636727 0.28916102103569585,-0.3136344330977749 l0.29741667032625685,-0.26664147974854296 0.31345715282519393,-0.22393006538854363 l0.3372824685326207,-0.18550019001776263 0.36889261744838103,-0.15135185363627102 l0.40828759957258853,-0.12148505624402617 0.45546741490514364,-0.0958997978410565 l0.5104320634461885,-0.0745960784273052 0.0,0.0 l1.4297408775210556,-0.17291868046598324 -0.7499999999999999,-0.34909189989923556 l0.0,0.0 -0.17716291914888416,-0.06809306466918486 l-0.22403646558895216,-0.0621258972637122 -0.26676024285228545,-0.055655459720540534 l-0.3053342509388557,-0.04868175203958458 -0.3397584898485774,-0.041204774220815914 l-0.37003295958152194,-0.03322452626427719 -0.39615766013764636,-0.024741008169939956 l-0.4181325915170362,-0.015754219937889502 -0.43595775371957757,-0.006264161567969495 l0.0,0.0 -0.6491496506412345,-0.0006365681212514573 l-0.5139140356409655,0.007338801837789788 -0.40374991957376943,0.022558220885116494 l-0.318657302439604,0.04502168902061498 -0.25863618423838375,0.07472920624444157 l-0.223686564970194,0.11168077255648255 -0.21380844463497795,0.1558763879568232 l-0.2290018232328066,0.2073160524453499 -0.2692667007636089,0.26599976602220465 l0.0,0.0 -0.5439813507767468,0.656523067357 l-0.3909491276428554,0.723225571146159 -0.2384683542894237,0.7824564653592887 l-0.0865390307163949,0.8342157499963179 0.064838843076231,0.8785034250573887 l0.21566526708851083,0.9153194905424015 0.3659402413203168,0.9446639464513992 l0.5156637657717908,0.9665367927843533 0.6648358404428336,0.980938029541278 l0.0,0.0 0.23203139242988868,0.29602137815052737 l0.18961627800612743,0.2123044344956071 0.14755208675362042,0.1283689258840468 l0.10583881867235333,0.0442148523159176 0.0644764737624257,-0.04015778620878052 l0.023465052023766475,-0.12474898969006175 -0.017195446543567527,-0.2095587581278835 l-0.05750502193967577,-0.2945870915223452 -0.09746367416445878,-0.3798339898733473 m27.367844284293938,7.777517514949253 l-0.9611936699073594,-0.28514267798041715 -0.8695446629173489,-0.35049856346630287 l-0.7829590710672533,-0.4205088429115875 -0.7014368943570304,-0.49517351631615725 l-0.6249781327866657,-0.5744925836800405 -0.5535827863561451,-0.6584660450032372 l-0.4872508550654686,-0.7470939002857476 -0.42598233891467885,-0.8403761495275432 l-0.3697772379037332,-0.9383127927286664 0.0,0.0 l-0.2537900256627239,-0.7762634182039676 -0.21654672644010017,-0.7798416277515088 l-0.1857572439975428,-0.8320974625348612 -0.16142157833503745,-0.9330309225540104 l-0.1435397294524421,-1.0826420078088432 -0.13211169734987038,-1.2809307182994585 l-0.12713748202733655,-1.5278970540258143 -0.1286170834847553,-1.8235410149879667 l-0.13655050172218353,-2.167862601185817 0.0,0.0 l-0.152292206633021,-2.3511828411353406 -0.15832713501984583,-2.094727647846767 l-0.16904527098455446,-1.873452855438927 -0.18444661452710417,-1.6873584639117494 l-0.20453116564736715,-1.5364444732651632 -0.2292989243454855,-1.4207108834993105 l-0.25874989062135967,-1.3401576946140636 -0.29288406447506077,-1.2947849066095214 l-0.33170144590656037,-1.2845925194855994 0.0,0.0 l-0.23388611807365575,-0.8602050910201626 -0.1782901870018776,-0.6769245154654583 l-0.12523233152556656,-0.5216855572327574 -0.07471255164469424,-0.39448821632205977 l-0.0267308473591612,-0.29533249273332274 0.018712781330918915,-0.22421838646657477 l0.06161833442560294,-0.18114589752180166 0.10198581192486243,-0.16611502589901758 l0.13981521382874007,-0.17912577159820842 0.0,0.0 l0.28056295237590234,-0.38417090588706054 0.3006547682701495,-0.48020449872123544 l0.3137656388653909,-0.5613778862411607 0.3198955641616692,-0.6276910684468362 l0.31904454415902705,-0.6791440453381766 0.3112125788575071,-0.7157368169152534 l0.2963996682569814,-0.7374693831780661 0.27460581235754944,-0.7443417441265723 l0.2458310111591828,-0.7363538997608146 0.0,0.0 l0.6535324451115656,-2.0748550665221823 1.6161034841640713,1.2238984331102003 l0.0,0.0 1.3646507792288958,1.1175763549850828 l1.399184088812845,1.3038727249112085 1.4086164634638578,1.4590554663574122 l1.392947903181863,1.5831245793236375 1.3521784079670311,1.6760800638099622 l1.2863079778192201,1.7379219198163725 1.1953366127385152,1.768650147342811 l1.079264312724831,1.7682647463893346 0.9380910777782673,1.7367657169559152 l0.0,0.0 1.0789469323733554,2.3007309045598414 l0.9319198389441111,2.305655744961385 0.780965098099358,2.292012704382415 l0.6260827098390394,2.2598017828229047 0.4672726741632686,2.209022980282896 l0.30453499107190396,2.1396762967623744 0.13786966056517255,2.0517617322613404 l-0.0327233173572381,1.9452792867797655 -0.20724394269501545,1.8202289603177062 l0.0,0.0 -0.1580937234183466,0.7605751934245149 l-0.21691453518218393,0.7766460253811402 -0.2683647379849958,0.7772616831290264 l-0.31244433182681064,0.7624221666682303 -0.3491533167074294,0.7321274759987942 l-0.37849169262702276,0.6863776111206618 -0.40045945958553375,0.6251725720338754 l-0.4150566175829908,0.5485123587384066 -0.42228316661929455,0.4563969712342839 l0.0,0.0 -0.6920645203692146,0.5822010430289879 l-0.7602891520929802,0.49164458939112876 -0.8198198242875491,0.39910624044723875 l-0.8706565369528363,0.30458599619731785 -0.9127992900887989,0.20808385664149395 l-0.9462480836955081,0.10959982177961079 -0.9710029177729353,0.009133891611782019 l-0.9870637923210664,-0.09331393386207763 -0.9944307073399158,-0.19774365464186872 m-92.7143461564982,-0.33989630604037296 l-0.7953080432201922,-0.36438116966343154 -0.7262640348862028,-0.4232507320749477 l-0.6600947551067334,-0.485442056521066 -0.5968002038817808,-0.5509551430018433 l-0.5363803812113197,-0.6197899915171945 -0.47883528709537865,-0.6919466020671335 l-0.4241649215339436,-0.7674249746517033 -0.37236928452701784,-0.8462251092708469 l-0.3234483760745945,-0.9283470059246071 0.0,0.0 l-0.550638303952983,-2.7580616061505334 -0.07096994113245357,-3.055863350657716 l0.3834716585759175,-3.28084001955645 0.8126864951721515,-3.4329916128467346 l1.2166745686562626,-3.51231813052847 1.5954358790282157,-3.518819572601771 l1.9489704262880458,-3.4524959390665515 2.2772782104357248,-3.3133472299228828 l2.5803592314712773,-3.1013734451706934 0.0,0.0 l0.5481891559418912,-0.581566700220236 0.6281417479181357,-0.638738807036134 l0.6806735737330597,-0.6703143371589562 0.7057846333866776,-0.6762932905886457 l0.7034749268789894,-0.6566756673251887 0.673744454209995,-0.6114614673686276 l0.6165932153796803,-0.5406506907189481 0.5320212103880664,-0.4442433373761574 l0.4200284392351392,-0.3222394073402128 0.0,0.0 l0.7011521561917248,-0.4992643725365582 1.0488368220096973,1.5952809953614062 l0.0,0.0 0.21662552895715234,0.31201233406114426 l0.2598805802231041,0.3449263268093361 0.29500187362180696,0.36857885394505274 l0.321989409153268,0.3829699154682799 0.34084318681749437,0.38809951137909593 l0.35156320661449314,0.3839676416774296 0.35414946854425716,0.37057430636332356 l0.3486019726067724,0.3479195054367494 0.3349207188020671,0.31600323889773557 l0.0,0.0 1.7747391233307181,1.6197706386767408 l-0.7438094934961015,1.9583272427087905 0.0,0.0 l-0.5197500211931114,1.4421580140054429 -0.4640028367813329,1.455211079826853 l-0.41596031087637186,1.507061702161195 -0.37562244347822826,1.5977098810085266 l-0.3429892345868594,1.7271556163688473 -0.31806068420230815,1.8953989082421145 l-0.30083679232453875,2.1024397566283852 -0.29131755895358674,2.3482781615276025 l-0.289502984089431,2.632914122939823 0.0,0.0 l-0.3012392586406065,2.6890785110731055 -0.3067164526850661,2.3054910941891364 l-0.3234145974852396,1.9620003329967375 -0.3513336930411696,1.6586062274959517 l-0.3904737393527924,1.3953087776868216 -0.44083473642015036,1.1721079835692905 l-0.502416684243201,0.9890038451434009 -0.5752195828220152,0.8459963624091101 l-0.659243432156515,0.7430855353664753 0.0,0.0 l-0.5191559099965629,0.4850095112808787 -0.5228030435548803,0.415020736709323 l-0.5394648202995781,0.3500319392761071 -0.5691412402305929,0.2900431189813162 l-0.6118323033479669,0.2350542758249787 -0.6675380096516861,0.1850654098070379 l-0.7362583591417574,0.14007652092755052 -0.8179933518181777,0.10008760918644555 l-0.9127429876809393,0.06509867458380825 0.0,0.0 l-0.5315833545824589,0.022849266462159786 -0.4650247937530629,0.009607646037537165 l-0.4096417302690867,-0.004902397172941164 -0.36543416413052293,-0.020680863169260988 l-0.33240209533736476,-0.037727751951393884 -0.3105455238896013,-0.056043063519311424 l-0.29986444978725046,-0.0756267978731131 -0.30035887303030506,-0.0964789550126852 l-0.31202879361876507,-0.11859953493809883 m75.85438896696002,-3.1044199877958643 l-0.07698164026571419,-0.33495137350939785 -0.10595918123365776,-0.38226304278059325 l-0.13091015372560832,-0.4186322080135625 -0.15183455774153742,-0.44405886920833376 l-0.1687323932814024,-0.4585430263647651 -0.1816036603452602,-0.46208467948301285 l-0.19044835893303969,-0.45468382856296324 -0.19526648904485455,-0.43634047360470163 l-0.1960580506805769,-0.40705461460817105 0.0,0.0 l-0.1890043378043913,-0.3798922738463091 -0.17494223160490208,-0.35807610191784534 l-0.15810887871244006,-0.3301514018495481 -0.13850427912704788,-0.2961181736412897 l-0.11612843284865448,-0.25597641729305565 -0.09098133987725987,-0.20972613280487448 l-0.06306300021292088,-0.15736732017674623 -0.03237341385558068,-0.0988999794086851 l0.0010874191947607414,-0.03432411050064843 0.0,0.0 l0.17594972974814027,0.03835201737513216 0.25285551054705024,0.10664614663404848 l0.3101797689059964,0.16232541765566563 0.3479225048249503,0.20538983044012582 l0.36608371830403996,0.23583938498740054 0.3646634093431657,0.2536740812974756 l0.3436615779424272,0.25889391937039363 0.30307822410166807,0.2514988992060409 l0.24291334782104454,0.2314890208045739 0.0,0.0 l0.20061897839057963,0.21873617538069823 0.1613100316378535,0.19748494517061488 l0.12588937548974855,0.18821960083113254 0.09435700994629315,0.19094014236222276 l0.06671293500755837,0.20564656976407034 0.042957150673487376,0.23233888303646208 l0.02308965694405174,0.27101708217955434 0.007110453819294093,0.3216811671932475 l-0.00498045870077135,0.3843311380776128 0.0,0.0 l-0.01154998832318199,0.2724661803671892 -0.02184029165556467,0.29168836437472123 l-0.03103026175273271,0.3036178513202259 -0.03911989861458664,0.30825464120374585 l-0.046109202241083835,0.3055987340253381 -0.05199817263233796,0.29565012978494565 l-0.056786809788292196,0.27840882848261117 -0.060475113708932327,0.25387483011824935 l-0.06306308439424413,0.22204813469198825 0.0,0.0 l-0.3490379563190373,1.111112116135487 -0.3335491652164961,-1.678080204696471 m-13.721626924617679,-25.423299188511507 l-1.5784790128391106,-0.49034655920124237 -1.5190475260543364,-0.6255270551679074 l-1.4513530383080422,-0.7543531219851899 -1.3753955496001706,-0.8768247596531323 l-1.2911750599307366,-0.9929419681716496 -1.1986915692996831,-1.1027047475407414 l-1.097945077707081,-1.2061130977604932 -0.9889355851529302,-1.303167018830848 l-0.8716630916371456,-1.3938665107517918 0.0,0.0 l-0.44784798351876987,-0.8370339474628565 -0.3864122936026888,-0.8183647277476139 l-0.3286019764225471,-0.8133707039467666 -0.27441703197830236,-0.8220518760603426 l-0.22385746026998277,-0.8444082440882923 -0.17692326129754576,-0.8804398080306511 l-0.13361443506100557,-0.9301465678874051 -0.09393098156039059,-0.9935285236585542 l-0.05787290079567242,-1.0705856753441125 0.0,0.0 l-0.0283428245379298,-1.187796039037167 0.013172484173082921,-1.0535628836866664 l0.06194821563209984,-0.9536428136583126 0.11798436983912096,-0.8880358289520344 l0.1812809467941747,-0.8567419295678391 0.25183794649726104,-0.8597611155057479 l0.3296553689483659,-0.8970933867657535 0.4147332141474891,-0.9687387433478492 l0.5070714820946449,-1.0746971852520344 0.0,0.0 l0.3141398036084837,-0.6289803037650472 0.29419836112116116,-0.5506693245134642 l0.2900648866973796,-0.4936540094636541 0.3017393803372527,-0.4579343586156028 l0.32922184204078064,-0.4435103719692819 0.3725122718079347,-0.4503820495247055 l0.431610669638701,-0.4785493912818879 0.5065170355331361,-0.5280123972408148 l0.5972313694912259,-0.5987710674014863 0.0,0.0 l0.8098175971891378,-0.7733597487628003 0.78467884504974,-0.6886557849566444 l0.7731751577858289,-0.612305616027939 0.7753065353974334,-0.5443092419766913 l0.7910729778846245,-0.484666662802816 0.8204744852473452,-0.4333778785064126 l0.86351105748561,-0.3904428890874385 0.92018269459939,-0.35586169454588656 l0.9904893965887425,-0.329634294881771 0.0,0.0 l1.2123730950872726,-0.3164096549998589 1.2743393788354211,-0.22092685589388594 l1.3192346927932732,-0.12621003882510703 1.3470590369607576,-0.03225920379353653 l1.3578124113380736,0.06092564920086118 1.3514948159250508,0.15334452015805056 l1.3281062507217456,0.2449974090780671 1.2876467157281581,0.3358843159608824 l1.230116210944331,0.4260052408065036 0.0,0.0 l1.593432134608932,0.7279687647956549 1.5109818383555051,0.8921420792657812 l1.4190880386472173,1.04596738777812 1.317750735484168,1.189444690332671 l1.2069699288663571,1.3225739869294841 1.0867456187938414,1.4453552775685237 l0.9570778052664792,1.5577885622497971 0.817966488284398,1.65987384097329 l0.6694116678475267,1.751611113739045 0.0,0.0 l0.16725313109122905,0.5262552754701417 0.13800211898862358,0.48395268804085134 l0.11153499218639239,0.4614310014237333 0.0878517506846066,0.4586902156187733 l0.06695239448332302,0.47573033062604964 0.048836923582513236,0.512551346445477 l0.03350533798212041,0.5691532630771121 0.020957637682215587,0.6455360805209267 l0.011193822682770358,0.7416997987769349 0.0,0.0 l-0.002818028378825943,0.9708959611066063 -0.029410843355506696,0.8798775880283712 l-0.05953961671264096,0.8085104007727891 -0.09320434845021452,0.7567943993398529 l-0.13040503856814212,0.7247295837296405 -0.17114168706645216,0.7123159539420668 l-0.2154142939452299,0.7195535099771958 -0.26322285920437594,0.7464422518349636 l-0.3145673828439328,0.7929821795154409 0.0,0.0 l-0.8377638690122069,1.7414083402901566 -1.0168176904955857,1.6332506499865644 l-1.1810799625025652,1.512635361231261 -1.3305506850330744,1.3795624740242969 l-1.4652298580870988,1.234031988365686 -1.58511748166471,1.076043904255371 l-1.6902135557658085,0.9055982216934381 -1.780518080390479,0.722694940679787 l-1.8560310555386932,0.5273340612145034 0.0,0.0 l-0.8450540195843529,0.1598959485519913 -0.9096105594581445,0.11662613951294531 l-0.9544081560126613,0.07359243353951683 -0.9794468092478326,0.03079483063169164 l-0.9847265191636723,-0.011766669210445002 -0.9702472857601377,-0.054092065986978355 l-0.9360091090373146,-0.09618135969786579 -0.8820119889951172,-0.1380345503431215 l-0.8082559256336026,-0.1796516379227313 m-2.860348606219816,-10.384106817473237 l0.846727764787161,-0.45012397809822596 0.7374269032612801,-0.5851240468484704 l0.6189810359919647,-0.6980138487156609 0.49139016297934285,-0.7887933836997121 l0.354654284223372,-0.8574626518006382 0.20877339972403772,-0.9040216530184253 l0.05374750948138285,-0.9284703873530872 -0.11042338650463533,-0.9308088548046456 l-0.2837392882339884,-0.9110370553730647 0.0,0.0 l-0.6541072614520401,-1.1312941203312832 -0.8806885618665916,-0.891858398666244 l-1.050290711806582,-0.6460854582543831 -1.1629137112719405,-0.3939752990956933 l-1.218557560262596,-0.1355279211901319 -1.2172222587786337,0.1292566754622726 l-1.1589078068199967,0.40037849086153443 -1.043614204386742,0.6778375250076181 l-0.8713414514788127,0.9616337779005731 0.0,0.0 l-0.5586407926919604,1.0153245044188137 -0.3252687076706593,1.0652294262863933 l-0.10206391362380884,1.0821804414191263 0.11097358944866187,1.0661775498170414 l0.31384380154678126,1.017220751480174 0.5065467226705351,0.9353100464084959 l0.6890823528199093,0.820445434602007 0.8614506919949179,0.6726269160607146 l1.0236517401955325,0.4918544907846254 0.0,0.0 l0.3885357173207069,0.1152581714184322 0.4196187403391747,0.08366221071943869 l0.4412341368477825,0.05227163179586114 0.4533819068465021,0.02108643464774218 l0.4560620503354471,-0.009893380724875556 0.44927456731456056,-0.04066781432202048 l0.43301945778382844,-0.07123686614372103 0.4072967217432364,-0.10160053618992036 l0.3721063591928697,-0.1317588244606611 m-32.78040057874043,5.615452715857089 l-2.975046740846082,-0.6408114529084088 -2.7245719682364467,-1.0566298501752414 l-2.4271837303679002,-1.4176664304056885 -2.082882027240437,-1.7239211935998213 l-1.6916668588540202,-1.9753941397575543 -1.2535382252086649,-2.1720852688789236 l-0.7684961263043703,-2.3139945809639215 -0.23654056214114405,-2.4011220760125838 l0.34232846728101407,-2.4334677540248464 0.0,0.0 l0.3429029880326482,-1.0554413684231392 0.461442980896173,-1.0526848057953726 l0.5698191775565178,-1.0369363160625085 0.668031578013661,-1.008195899224475 l0.7560801822676595,-0.9664635552812654 0.8339649903184706,-0.9117392842329223 l0.9016860021661017,-0.8440230860794102 0.9592432178105739,-0.7633149608207503 l1.0066366372518658,-0.6696149084569214 0.0,0.0 l1.160461980602619,-0.6295608046259885 1.2532445909079255,-0.5521669813785337 l1.325858500525207,-0.4705594444062555 1.3783037094544426,-0.3847381937091896 l1.4105802176956885,-0.2947032292872222 1.4226880252489165,-0.20045455114045296 l1.4146271321141197,-0.10199215926883909 1.386397538291298,0.0006839463276122614 l1.3379992437804802,0.10757376564889398 0.0,0.0 l2.4704523235844813,0.4519845723777678 2.303356416457546,0.7110194303066278 l2.1144693085661714,0.9520594087815866 1.903790999910356,1.1751045078026294 l1.6713214904901719,1.3801547273697992 1.417060780305533,1.5672100674830742 l1.1410088693565115,1.736270528142441 0.8431657576430354,1.8873361093479346 l0.5235314451651902,2.0204068110995266 0.0,0.0 l0.13655144078923342,1.7178989022869544 -0.16430814556856888,1.7217962729467613 l-0.4488606115807982,1.699197673332833 -0.7171059572473695,1.6501031034452467 l-0.9690441825682683,1.5745125632839674 -1.2046752875435374,1.4724260528490303 l-1.4239992721731198,1.3438435721404003 -1.6270161364570868,1.1887651211580987 l-1.8137258803953953,1.007190699902111 0.0,0.0 l-1.0854310935592721,0.4672777786584845 -1.158567969074653,0.40443033461357913 l-1.2141636174372434,0.3388347052898695 -1.2522180386470223,0.27049089068725607 l-1.2727312327039326,0.19939889080582418 -1.2757031996080241,0.12555870564553118 l-1.2611339393592684,0.04897033520639126 -1.229023451957701,-0.030366220511581332 l-1.1793717374032866,-0.11245096150841505 m11.765726406192526,-5.628418227237801 l0.4064702690772605,-0.27166349468033957 0.38389823615280244,-0.327702532870191 l0.35684125922787757,-0.37670852557709367 0.3252993383024716,-0.4186814728010546 l0.2892724733766556,-0.45362137454198853 0.2487606644503586,-0.481528230799995 l0.20376391152363735,-0.50240204157501 0.15428221459642089,-0.516242806867055 l0.10031557366878019,-0.5230505266761298 0.0,0.0 l0.04109302599957232,-1.0431860713974357 -0.15611728168107675,-0.993830866704087 l-0.3360064653503656,-0.9248840337959833 -0.49857452500830846,-0.8363455726730891 l-0.6438214606548484,-0.7282154833353757 -0.7717472722900139,-0.6004937657828933 l-0.8823519599138477,-0.4531804200156273 -0.9756355235262645,-0.2862754460335566 l-1.0515979631273211,-0.09977884383668821 0.0,0.0 l-1.338047281585865,0.15694627162540795 -1.1833003825783663,0.44257876762797815 l-1.0050971172848477,0.6858211927581123 -0.8034374857052953,0.8866735470158034 l-0.5783214878396521,1.0451358304011222 -0.32974912368796794,1.161208042914005 l-0.0577203932502357,1.2348901845544586 0.23776470347353038,1.266182255322498 l0.5567061664833801,1.2550842552181365 0.0,0.0 l0.543855270393081,0.7552460316118044 0.6582219421418926,0.6247864226798256 l0.7522929028270794,0.48959589469509973 0.8260681524486272,0.3496744476576197 l0.8795476910066283,0.2050220815674919 0.9127315185009977,0.0556387964246312 l0.9256196349317632,-0.098475407770934 0.9182120402989398,-0.2573205310192463 l0.8905087346025198,-0.42089657332022057 m7.950561390399769,-14.53686647867022 l-0.17088841430057752,-0.30218473410060653 -0.21764933370494075,-0.3388973718217656 l-0.2590237069028802,-0.36885244472691164 -0.2950115338944527,-0.39204995281603056 l-0.3256128146796015,-0.4084898960890655 -0.35082754925835496,-0.41817227454608735 l-0.3706557376307131,-0.4210970881870608 -0.3850973797966759,-0.4172643370119857 l-0.3941524757562149,-0.4066740210208621 0.0,0.0 l-0.5392141072314729,-0.5337261548465903 -0.48419860062224984,-0.4572602535752281 l-0.45012414339902307,-0.39574547183251946 -0.43699073556186363,-0.34918180961845735 l-0.4447983771106436,-0.3175692669329919 -0.4735470680454625,-0.30090784377617297 l-0.5232368083662634,-0.29919754014797917 -0.5938675980730892,-0.3124383560484105 l-0.6854394371659112,-0.34063029147746704 0.0,0.0 l-0.4911580050237063,-0.23297142657190759 -0.5100254838912122,-0.23020323056238112 l-0.5170647457305506,-0.2228029555337798 -0.5122757905417075,-0.21077060148610371 l-0.4956586183246259,-0.19410616841929593 -0.4672132290793485,-0.1728096563334134 l-0.4269396228058895,-0.14688106522842048 -0.37483779950420626,-0.11632039510433145 l-0.31090775917434144,-0.0811276459611534 0.0,0.0 l-0.2687242798354035,-0.0650100802263651 -0.2532921810699449,-0.06987995146170789 l-0.2335390946501974,-0.072986124020602 -0.2094650205761326,-0.07432859790302615 l-0.18106995884774332,-0.07390737310898032 -0.14835390946502258,-0.07172244963847874 l-0.11131687242798449,-0.06777382749150716 -0.06995884773662908,-0.06206150666808696 l-0.02427983539094214,-0.054585487168168356 0.0,0.0 l0.09287689868723702,-0.241511973841682 0.2584268146193551,-0.3996054836300331 l0.3936709083878824,-0.5226246242493673 0.49860917999279053,-0.6105693956996275 l0.5732416294341647,-0.6634397979808212 0.6175682567119337,-0.6812358310929341 l0.6315890618261335,-0.6639574950360156 0.6153040447767353,-0.6116047898100092 l0.5687132055637676,-0.5241777154149432 0.0,0.0 l2.09479851322574,-1.6919958230834025 2.0601336712632445,-1.3731347215070002 l2.033827603927946,-1.0560535850326573 2.0158803112198167,-0.7407524136603597 l2.0062917931389848,-0.4272312073900828 2.0050620496853635,-0.1154899662218547 l2.0121910808589685,0.19447130984434577 2.0276788866597855,0.5026526208084973 l2.0515254670878416,0.8090539666706249 0.0,0.0 l0.6222043715909251,0.3015084322849404 0.5987401310262611,0.315931874260059 l0.5857435341401498,0.337471847089084 0.583214580932534,0.3661283507719872 l0.5911532714035131,0.40190138530881114 0.6095596055530165,0.44479095069952734 l0.6384335833810865,0.49479704694415716 0.6777752048876947,0.5519196740426793 l0.7275844700728554,0.6161588319950937 0.0,0.0 l1.7416734085771424,1.4990123412794603 -1.7167357693164291,0.43723036461587833 l0.0,0.0 -1.9894972890959366,0.6212745972751534 l-1.9015415940211113,0.8220674833494996 -1.7990598614675406,1.010225649931172 l-1.6820520914352954,1.1857490970201852 -1.5505182839242764,1.3486378246165458 l-1.4044584389344976,1.4988918327202398 -1.2438725564660018,1.6365111213312884 l-1.0687606365187747,1.7614956904496564 -0.8791226790928164,1.8738455400753864 l0.0,0.0 -0.12704323098743942,0.30892580611345716 l-0.12367026454340646,0.29126307984355293 -0.11792694156909533,0.2686264242279961 l-0.10981326206457707,0.24101583926678669 -0.09932922602976646,0.20843132495997452 l-0.08647483346469187,0.17087288130750977 -0.07125008436939595,0.1283405083094067 l-0.05365497874382186,0.08083420596567237 -0.033689516587998014,0.028353974276306815 l0.0,0.0 -0.03442974055995762,-0.02281308288745265 l-0.05578782747654998,-0.06659629772644848 -0.07464382308826599,-0.10624744021249198 l-0.09099772739502043,-0.14176651034554766 -0.10484954039687011,-0.17315350812557284 l-0.1161992620937866,-0.20040843355261018 -0.1250468924857557,-0.22353128662665256 l-0.1313924315728343,-0.24252206734770707 127.11858312442402,50.43809396846117 " fill="none" stroke="black" stroke-width="1" /></svg>