<?xml version="1.0" encoding="utf-8" ?>
<svg baseProfile="full" height="339.9685865651479" version="1.1" width="433.255841922024" xmlns="http://www.w3.org/2000/svg" xmlns:ev="http://www.w3.org/2001/xml-events" xmlns:xlink="http://www.w3.org/1999/xlink"><defs /><rect fill="white" height="339.9685865651479" width="433.255841922024" x="0" y="0" /><path d="M25,25 m223.56426398627795,274.912486858898 l14.750838499626333,-15.08751314110203 5.700535539271563,12.51131266140959 l0.0,0.0 1.6742475186773476,3.4567383861942247 l1.6415132003585953,2.7153772250555264 1.795715269521061,2.0335249523776966 l2.1368537261647447,1.4111815681606643 2.664928570289824,0.8483470724046072 l3.379939801896228,0.34502146510952514 4.281887420983885,-0.09879525372475939 l5.370771427552903,-0.48310308409803326 6.646591821603245,-0.8079020260104741 l0.0,0.0 15.002884335762303,-2.410676419244062 l12.862587636936773,-3.1189949706543274 10.822488978035487,-3.9088810857034773 l8.882588359058161,-4.780334764391476 7.042885780005506,-5.7333560067180755 l5.303381240876703,-6.767944812683453 3.664074741672536,-7.884101182287644 l2.1249662823922932,-9.081825115530577 0.6860558630365432,-10.361116612412218 l0.0,0.0 0.11810882746431162,-2.1305437785234815 l0.34031357066041323,-2.096063203288061 0.5414989462566666,-2.0199871498924438 l0.7216649542530718,-1.9023156183367007 0.8808115946501971,-1.7430486086205121 l1.0189388674476163,-1.5421861207441623 1.1360467726454715,-1.299728154707509 l1.2321353102435495,-1.0156747105105879 1.3072044802422766,-0.6900257881533989 l0.0,0.0 3.6877766946663115,-2.628429155710954 l4.261238014534854,-5.026069311339008 4.609556814403604,-6.96379839896359 l4.732733094272348,-8.441616418584523 4.630766854141513,-9.459523370201737 l4.303658094010885,-10.017519253815301 3.7514068138803225,-10.115604069425181 l2.9740130137500387,-9.753777817031484 1.9714766936201045,-8.932040496634084 l0.0,0.0 1.0364925108805778,-9.345512931774582 l-0.4554921464799122,-7.901627805771003 -2.225752616772212,-6.659192103647147 l-4.274288899996037,-5.618205825403049 -6.601100996151104,-4.778668971038531 l-9.206188905237838,-4.140581540553683 -12.089552627255955,-3.703943533948575 l-15.251192162205598,-3.468754951223083 -18.691107510086695,-3.435015792377314 l0.0,0.0 -4.635866393083781,-0.861261206713646 l-3.7535300500489654,-0.8921758040226102 -2.9428661745754425,-0.9868864038066683 l-2.2038747666628566,-1.1453930060657491 -1.5365558263112433,-1.367695610799835 l-0.9409093535206381,-1.6537942180089793 -0.4169353482910054,-2.0036888276931464 l0.035366189377548096,-2.417379439852372 0.4159952594851646,-2.8948660544865845 l0.0,0.0 0.17512256261916548,-2.4898767350641204 l-0.2832893471780906,-2.9721645399013497 -0.7199669695736333,-3.396542805139342 l-1.1349103045673559,-3.7630115307781153 -1.5281193521591874,-4.071570716817554 l-1.8995941123490923,-4.322220363257756 -2.249334585137248,-4.514960470098668 l-2.5773407705235485,-4.649791037340325 -2.883612668507922,-4.72671206498271 l0.0,0.0 -15.160703025906912,-23.750000000000018 l-30.270713664944076,0.0 0.0,0.0 l-5.694316509459405,0.11337003646709753 -5.8933627794128185,0.3266594271085843 l-5.956921441638059,0.5197727943110175 -5.88499249613502,0.6927101380743839 l-5.677575942903381,0.8454714583986922 -5.334671781943463,0.9780567552839425 l-4.856280013255159,1.0904660287301304 -4.242400636838468,1.1826992787372648 l-3.493033652693427,1.2547565053053367 0.0,0.0 l-4.780034077172246,1.9552667117174316 -3.83868309068351,1.4142376087796515 l-3.0507545046814144,0.841628305989488 -2.416248319165959,0.2374388033469632 l-1.9351645341370016,-0.398330899147914 -1.607503149594649,-1.0656808014951524 l-1.4332641655387945,-1.7646109036947522 -1.4124475819695803,-2.4951212057467087 l-1.5450533988868287,-3.257211707651031 0.0,0.0 l-2.8095015427157577,-4.5013384491531 -3.922954438086883,-3.806813024456843 l-4.889738881797605,-3.0774901923379594 -5.7098548738478705,-2.313369952796447 l-6.383302414237537,-1.5144523058322978 -6.910081502966712,-0.6807372514455123 l-7.290192140035412,0.1877752103639052 -7.52363432544362,1.0910850795959526 l-7.610408059191265,2.0291923562506398 0.0,0.0 l-6.421333100012863,2.9117084647384317 -7.305548433299904,4.601368175644418 l-7.751947114242856,5.865866566999056 -7.760529142841808,6.705203638802328 l-7.331294519096652,7.119379391054266 -6.4642432430074415,7.108393823754846 l-5.159375314574142,6.672246936904083 -3.4166907337968055,5.810938730501949 l-1.2361895006753887,4.524469204548502 0.0,0.0 l0.2142133500181309,0.8053942018984461 0.6172249068319768,0.1754361953643535 l0.9821137488120346,-0.4187333476419397 1.3088798759583398,-0.9771144271204069 l1.5975232882709456,-1.4997070430710213 1.848043985749781,-1.9865111954938008 l2.060441968394926,-2.437526884388781 2.234717236206265,-2.8527541097558995 l2.3708697891839314,-3.232192871595192 0.0,0.0 l6.365737867138499,-7.795552075978991 7.4419829952213234,-7.184335488074889 l8.221807888743271,-6.4244830294567645 8.705212547704377,-5.515994700124605 l8.892196972104731,-4.458870500078387 8.782761161944208,-3.2531104293181246 l8.37690511722288,-1.898714487843829 7.674628837940745,-0.39568267565548654 l6.675932324097786,1.2559850072469025 0.0,0.0 l2.676247361602666,1.1264086878443291 2.5560989670161938,1.4504336938477613 l2.416742927684119,1.7532665214278742 2.258179243606264,2.0349071705846677 l2.0804079147829313,2.2953556413181753 1.8834289412138716,2.5346119336283612 l1.6672423228991562,2.752676047515248 1.431848059838856,2.949547982978813 l1.1772461520328648,3.1252277400190875 0.0,0.0 l5.01863575222103,15.418405836215499 13.785219859681455,-10.292152700497006 l0.0,0.0 3.343622769255852,-2.243907148329005 l3.716413872064024,-2.0093419397804135 4.114255239175684,-1.7815416174688536 l4.537146870591009,-1.5605061813943255 4.985088766310142,-1.346235631556798 l5.458080926332833,-1.138729967956289 5.9561233506592615,-0.9379891905927984 l6.479216039289319,-0.7440132994663351 7.027358992223149,-0.5568022945768814 l0.0,0.0 31.832086966219855,-2.026914570624694 l15.614057421877696,22.694254541093866 0.0,0.0 l5.60150785308231,8.270157278415047 4.237619290556047,6.711659386739841 l2.893721824122224,5.432052756210437 1.5698154537807696,4.431337386826906 l0.26590017953189715,3.709513278589247 -1.0180239986245354,3.2665804314974167 l-2.2819570806884926,3.102538845551459 -3.5258990666600454,3.217388520751321 l-4.749849956539052,3.6111294570970642 0.0,0.0 l-12.621222923316537,9.193920733087158 32.42165008121159,0.9008593748276894 l0.0,0.0 6.690954834978591,0.3193930255104682 l6.7192728298264015,0.5791484859684282 6.677841883427114,0.8249790727622575 l6.566661995780407,1.0568847858920805 6.385733166886851,1.2748656253578972 l6.135055396746054,1.478921591159672 5.814628685358159,1.6690526832974584 l5.424453032723093,1.8452589017711851 4.9645284388410005,2.0075402465809056 l0.0,0.0 6.740189277762028,3.0191329589558435 l5.240431246077932,2.537834179640761 3.895749592755635,2.28542601874393 l2.706144317795207,2.261908476265315 1.6716154211969325,2.4672815522050406 l0.792162902960527,2.9015452465629643 0.06778676308613285,3.5646995593392106 l-0.5015129984262501,4.456744490533637 -0.9157363815766217,5.577680040146422 l0.0,0.0 -1.9160353322017443,8.860036430320282 l-2.697295657494223,9.251009118136633 -3.3296915013212924,9.334160158400575 l-3.8132228636828103,9.109489551112198 -4.147889744578563,8.576997296271713 l-4.333692144008836,7.7366833938788915 -4.370630061973415,6.5885478439338385 l-4.258703498472514,5.132590646436483 -3.9979124535059185,3.368811801386933 l0.0,0.0 -1.6822303630866742,1.2281653928771874 l-1.5856244846550283,1.50195369960624 -1.4619689602627517,1.7272433075122962 l-1.3112637899098445,1.9040342165957114 -1.1335089735958803,2.03232642685645 l-0.9287045113210723,2.1121199382944766 -0.6968504030856337,2.143414750909791 l-0.4379466488893513,2.126210864702358 -0.15199324873215403,2.0605082796723195 l0.0,0.0 -0.6729843989306517,9.923226513633132 l-2.0745552645980325,8.764247347142273 -3.559529231975702,7.6754958012459795 l-5.127906301063234,6.656971875944322 -6.779686471860487,5.708675571237407 l-8.514869744367672,4.830606887125128 -10.333456118584863,4.022765823607628 l-12.235445594511845,3.2851523806846927 -14.220838172148689,2.6177665583565 l0.0,0.0 -6.22449522683258,0.9136274316681892 l-4.886249259828261,0.5566803269919873 -3.7439896293354025,0.08410819091814403 l-2.7977163353538614,-0.5040889765532341 -2.0474293778834607,-1.2079111754220406 l-1.4931287569243779,-2.027358405688453 -1.1348144724765774,-2.9624306673524003 l-0.9724865245401304,-4.0131279604138825 -1.0061449131148237,-5.1794502848728285 l0.0,0.0 -0.6405897978532948,-3.138090605118151 l-0.7040230436632555,-2.955936320822552 -0.7487875236650865,-2.723484876659583 l-0.774883237859072,-2.440736272629316 -0.7823101862447146,-2.1076905087313946 l-0.7710683688222275,-1.7243475849660683 -0.7411577855917528,-1.2907075013333014 l-0.6925784365531129,-0.8067702578331648 -0.6253303217063078,-0.27253585446540995 l0.0,0.0 -0.7539016551246647,0.29172896679924065 l-1.063038210808962,0.8190775322518107 -1.330624661687203,1.296303247007593 l-1.5566610077591747,1.7234061110666943 -1.7411472490248059,2.1003861244293986 l-1.8840833854841321,2.4272432870953864 -1.9854694171372955,2.7039775990647286 l-2.045305343984083,2.930589060337496 -2.063591166024601,3.107077670913725 l0.0,0.0 -2.2213600526016464,3.1586472978749924 l-2.4998936612398026,3.079179510904204 -2.7087996513588664,2.9404112277605066 l-2.848078022958873,2.742342448444006 -2.917728776039681,2.484973172954703 l-2.9177519106013605,2.168303401292775 -2.848147426643912,1.7923331334578663 l-2.708915324167407,1.357062369450297 -2.5000556031716314,0.862491109269925 l0.0,0.0 -3.4523178071939498,0.6656710363139595 l-3.2549211853691773,0.1326752419704036 -3.2106584249747883,-0.4846482645031358 l-3.3195295260108537,-1.186299483106339 -3.5815344884772315,-1.9722784138390281 l-3.9966733123738862,-2.8425850567016653 -4.56494599770096,-3.7972194116938596 l-5.28635254445831,-4.836181478815824 -6.16089295264608,-5.9594712580674525 l0.0,0.0 -23.887372403746436,-23.528184254563698 l-19.367851557152544,10.380547489476903 0.0,0.0 l-11.707282626725402,5.382191521264019 -11.276787313020673,3.456789407982015 l-10.669781690295501,1.572387659550536 -9.886265758550001,-0.27101372403063095 l-8.926239517783987,-2.0734147427610594 -7.789702967997583,-3.834815396640998 l-6.476656109190735,-5.555215685670483 -4.98709894136347,-7.234615609849371 l-3.321031464515789,-8.87301516917784 0.0,0.0 l-0.8459087104181595,-2.987385602531134 -0.9256971320102814,-2.4162370604970107 l-1.0600912146228136,-1.878027862261753 -1.2490909582557652,-1.3727580078250767 l-1.492696362909074,-0.9004274971869819 -1.790907428582793,-0.46103633034753955 l-2.143724155276905,-0.054584507306749686 -2.551146542991418,0.3189279719354232 l-3.0131745917263153,0.6595011073789436 0.0,0.0 l-2.3828060560587794,0.46378387017444567 -2.448999204259863,0.22419818441541395 l-2.4729600685525233,-0.007498651379904686 -2.4546886489368047,-0.23130663721154576 l-2.394184945412652,-0.4472257730793672 -2.2914489579800934,-0.65525605898344 l-2.1464806866391317,-0.8553974949237286 -1.9592801313897579,-1.0476500809003397 l-1.729847292231974,-1.2320138169130956 0.0,0.0 l-2.124114213679101,-1.7195615579388956 -1.6914224883879103,-1.277944296482687 l-1.2856341642322133,-0.8331187482970037 -0.9067492412119993,-0.38508491338177464 l-0.5547677193272682,0.06615720826303573 -0.22968959857802285,0.5206076166373919 l0.06848512103573734,0.9782663117413648 0.33975643951401346,1.4391332935748125 l0.5841243568568055,1.903208562137877 0.0,0.0 l0.6953864224929207,1.3689823738836182 1.1533294400961402,1.3395349002675516 l1.558518652181442,1.2839690945759585 1.9109540587488283,1.202284956808981 l2.2106356597983035,1.0944824869667613 2.457563455329863,0.9605616850491927 l2.6517374453435094,0.8005225510562397 2.79315762983924,0.6143650849879734 l2.88182400881706,0.4020892868443937 0.0,0.0 l2.842196641216197,0.36017387891650543 2.6789770791249357,0.4935918757044888 l2.4700560396480897,0.6083510621668964 2.215433522785677,0.7044514383037281 l1.915109528537715,0.7818930041152683 1.5690840569042042,0.8406757596011616 l1.177357107885122,0.8807997047616922 0.7399286814804729,0.9022648395967536 l0.256798777690288,0.9050711641062748 0.0,0.0 l0.19865319865318476,1.0783633880527432 0.5723905723905798,1.4015814170696217 l0.9107744107744153,1.6753004942112426 1.2138047138047092,1.899520619477535 l1.481481481481488,2.074241792868605 1.7138047138047163,2.199464014384418 l1.9107744107744118,2.275187284024902 2.0723905723905744,2.3014116017901287 l2.1986531986532043,2.2781369676800978 0.0,0.0 l5.380403812396288,4.468205709776605 6.1393889032478555,3.447473337741549 l6.828140805600658,2.4235258907364354 7.44665951945465,1.3963633687612642 l7.9949450448099135,0.365985771816284 8.472997381666367,-0.667606900098825 l8.880816530024092,-1.7044146469837074 9.218402489882962,-2.7444374688387185 l9.485755261243174,-3.7876753656636453 0.0,0.0 l19.620237021053253,-8.813070161623067 19.76656306750865,21.444188868551528 l0.0,0.0 7.8613785271379655,7.918127903684216 l7.366504950040422,6.089219926476943 6.980206002799143,4.271433518004706 l6.702481685414234,2.4647686782676814 6.533331997885767,0.6692254072659765 l6.472756940213564,-1.1151962950006578 6.520756512397874,-2.888496428532008 l6.677330714438412,-4.650674993328181 0.0,0.0 " fill="none" stroke="black" stroke-width="1" /></svg>