<?xml version="1.0" encoding="utf-8" ?>
<svg baseProfile="full" height="475.3333333333338" version="1.1" width="714.0000000000002" xmlns="http://www.w3.org/2000/svg" xmlns:ev="http://www.w3.org/2001/xml-events" xmlns:xlink="http://www.w3.org/1999/xlink"><defs /><rect fill="white" height="475.3333333333338" width="714.0000000000002" x="0" y="0" /><path d="M25.00000000000039,25.000000000000526 m0.0,0.0 m73.16666666666667,425.2072770202861 l-73.16666666666667,0.1260563130472292 0.0685694276233914,-46.166666666666664 l0.0,0.0 0.20182749909705797,-38.04511442488937 l0.8063720979850064,-1.200512908027046 0.0,0.0 l1.069127703787412,6.477845391838666 1.2509753051852168,5.855487941494705 l0.0,0.0 1.4441865862903025,5.166712733538361 l1.5336569541038951,4.821853934411972 0.0,0.0 l2.0010289929975933,4.872847832901395 2.5678682968219633,5.289315085225856 l0.0,0.0 2.967521659013831,5.074210979884886 l2.961897714863156,4.355682643464661 0.0,0.0 l3.4431191433790076,3.992223656931477 4.124500838211517,4.200362778220172 l0.0,0.0 4.649196601228492,3.9976348011221794 l4.704621722547472,3.504813839653328 0.0,0.0 l5.572454779878157,3.2957535453349465 6.735688845449076,3.495000476484241 l0.0,0.0 7.6921120768566595,3.33768861504988 l7.87194042134746,2.917535665716135 0.0,0.0 l8.68541666666666,2.551462866238959 9.647916666666674,2.4575561397114143 l0.0,0.0 11.3125,2.3600300142105275 l12.6875,2.3169851602472895 0.0,0.0 l12.6875,1.9264258268613048 11.3125,1.4210256594738742 l0.0,0.0 8.472916666666663,0.8097234336803467 l5.86041666666667,0.4566991988896613 0.0,0.0 l-18.66770833333332,0.1820243936949737 -50.49895833333335,0.14933507225464382 m339.3333333333333,0.033292518393030456 l-177.52727903423855,-0.2279433672661071 -66.97272096576144,-0.42997349019363656 l0.0,0.0 7.050016213410307,-0.7994928918122545 l7.1202517471353985,-1.1285658431833478 0.0,0.0 l6.8088616384713605,-1.532745774114422 6.301354888324416,-1.7712446406466522 l0.0,0.0 5.435629236834491,-1.9956159867049337 l4.7274361359530985,-2.072191776339878 0.0,0.0 l3.8638262446171816,-2.0956442027133257 3.3592905619204125,-2.0520016075603658 l0.0,0.0 3.318106829721349,-2.4671399854235765 l3.764810037414994,-3.093742855873946 0.0,0.0 l3.9705118166091324,-3.924927303259968 3.8126664265071972,-4.465519614245598 l0.0,0.0 3.401146544009748,-4.894406349117996 l2.981112950179181,-4.956080516889794 0.0,0.0 l2.5808639847113,-5.5875000000000155 2.4388458397998343,-6.4124999999999845 l0.0,0.0 1.9586238299391046,-6.7062499999999545 l1.4262876631313475,-6.2937500000000455 0.0,0.0 l0.9402108602928365,-7.17500000000003 0.7899710911995422,-8.824999999999969 l0.0,0.0 0.3428668674673266,-12.76460927560739 l-0.412191002229747,-18.902057391059277 0.0,0.0 l-0.4076204223052855,-17.456249999999994 0.07640655416196296,-11.543750000000008 l0.0,0.0 0.5879864035408294,-7.385150011139444 l0.8223481517332326,-7.4579138565693865 0.0,0.0 l1.1837956015020836,-6.977875439913646 1.4569983572403846,-6.23101509449926 l0.0,0.0 1.6463990197281266,-5.165438466291524 l1.6391631517385576,-4.415957163584456 0.0,0.0 l1.8698826901603904,-3.963262982344039 2.2011076972104697,-4.077046073096615 l0.0,0.0 3.086237734854573,-4.373756307509514 l3.9979612913047426,-4.676630141677303 0.0,0.0 l4.826630244821142,-4.445971939155432 5.078569474160038,-3.8191950971909896 l0.0,0.0 5.196624122564951,-2.975970293562 l5.110463761199071,-2.418644219791948 0.0,0.0 l5.02284622759305,-1.8004842794468157 4.985969201342073,-1.4897559689022728 l0.0,0.0 5.609670133179975,-1.124264174313339 l6.522382510522637,-0.9217486882012812 0.0,0.0 l7.04198807682629,-0.4325622075330102 6.846797318045181,0.0839847059346539 l0.0,0.0 6.589281928949504,0.5982681428996178 l6.410718071050496,0.8360261633858954 0.0,0.0 l6.610078809812459,1.2863948540174686 7.06859604554749,1.68106946292869 l0.0,0.0 7.848401973452155,2.298047487584578 l8.484931359881179,2.769767551594365 0.0,0.0 l13.06886606565513,5.079106996161234 18.869351372440633,7.85028913090476 l0.0,0.0 19.67083333333335,8.220429640030261 l14.995833333333318,5.96901928405877 0.0,0.0 l11.177083333333334,3.9955469285541767 10.489583333333334,3.4756982321149885 l0.0,0.0 10.159806416849884,2.957112706042267 l10.384215427745326,2.748734919060174 0.0,0.0 l11.007742344228822,2.4269532065459694 11.658924322437846,2.183467312125041 l0.0,0.0 11.40120123892128,1.7163217282483931 l10.388110249816842,1.3038159516935366 0.0,0.0 l10.743750000000015,0.8372855120592249 12.256249999999985,0.5946634372125649 l0.0,0.0 12.62314693820008,0.09460140938820889 l11.37685306179992,-0.4797466332925069 0.0,0.0 l9.785416666666606,-0.9506570416871227 8.547916666666728,-1.1523427998876439 l0.0,0.0 7.622312849875016,-1.5029958276187092 l7.5600287667206585,-1.793716448785176 0.0,0.0 l6.776199104397317,-1.9962787081073732 5.7377862149270795,-1.9900072170529484 l0.0,0.0 4.9457401775005865,-2.1116845373114757 l4.871918205903739,-2.2888220525587712 0.0,0.0 l5.019347850782954,-2.7547118495527534 5.300198685401938,-3.2318025598715017 l0.0,0.0 5.580086779381721,-4.142385970459107 l5.692270289500432,-4.943986857986904 0.0,0.0 l5.176964750448708,-5.370740258879323 4.341160696129616,-5.168410104519656 l0.0,0.0 3.478297317710864,-5.149000941319438 l3.1024208831867477,-5.324075675015024 0.0,0.0 l2.5076954532704954,-5.1779635067281715 2.048425539401857,-4.7977099835234185 l0.0,0.0 1.5717366656169058,-4.861722973047108 l1.3616136928941007,-5.3318670772850965 0.0,0.0 l1.05817088216736,10.329429305982785 0.20071748973941794,99.50390402735054 l0.0,0.0 0.04690770504248576,115.5 l-251.5,-0.09276379465419875 m-261.7278286847822,-7.997334722008797 l-11.018262658039228,-0.230698697772065 -8.08724199051189,-0.4281372499681311 l0.0,0.0 -6.3916666666666515,-0.7114800472815356 l-6.9416666666666815,-0.911927125355381 0.0,0.0 l-8.214583333333337,-1.3300976444032433 -9.452083333333329,-1.7168687420135786 l0.0,0.0 -10.431249999999997,-2.2032438846990012 l-10.568750000000003,-2.4994676683062758 0.0,0.0 l-9.491666666666665,-2.5880590669139565 -7.841666666666669,-2.416240226032187 l0.0,0.0 -6.862500000000002,-2.6839942166606456 l-7.137499999999998,-3.2318080231058652 0.0,0.0 l-6.8730342388008365,-3.8295844106689856 -6.226656786904144,-4.1212012761208525 l0.0,0.0 -5.004505047694219,-4.087085591101186 l-3.934669418998245,-3.747561593493856 0.0,0.0 l-3.17777333173071,-3.9038646304877602 -3.1847336038382252,-4.462877999192945 l0.0,0.0 -2.8738764412551325,-5.040564018390872 l-2.430393345094769,-5.292769314942461 0.0,0.0 l-1.9531768897994677,-5.672751942861623 -1.7265262402260053,-5.954139272749596 l0.0,0.0 -1.427545122931188,-6.651239978163858 l-1.2343499482183138,-7.34876002183618 0.0,0.0 l-0.797886781113263,-9.192351289437662 0.04406498071559876,-12.986460884710633 l0.0,0.0 0.5873089176362404,-12.840611100112861 l1.1293975850935662,-9.529141894629978 0.0,0.0 l1.5495416405622489,-7.917106443664731 1.7963885265537176,-7.749560223001936 l0.0,0.0 2.0028820647860357,-7.0534452807961925 l2.0460048282271828,-6.243468391127635 0.0,0.0 l2.4318628696872957,-5.989820953859407 2.9305833134028987,-6.4436120805555674 l0.0,0.0 3.677759066252785,-6.808695182698481 l4.228264147815736,-6.867573944117718 0.0,0.0 l4.7234421302490075,-6.550233535213086 4.868293364443407,-6.045727816608405 l0.0,0.0 5.0568771102267265,-5.301908880775879 l5.176845604153594,-4.761902902254178 0.0,0.0 l5.18523363513476,-4.07293243689378 5.077044078330384,-3.645447974696708 l0.0,0.0 4.9693087237874165,-3.081811068826672 l4.926210335914429,-2.717805407887037 0.0,0.0 l5.013243314436456,-2.3100140594145464 5.178558225340386,-2.1013765501587236 l0.0,0.0 5.673253362915621,-1.773036117961207 l6.202616730308819,-1.5205998288120857 0.0,0.0 l5.026954462946681,-0.9469644310236541 2.8466611030875506,-0.3938701615761981 l0.0,0.0 1.2776467481820077,0.675569030531733 l1.2443767891712507,2.047638689783222 0.0,0.0 l1.6452405207032068,2.5891776532175377 2.2311589417988293,2.4009652185701498 l0.0,0.0 2.503934804749292,1.7198681856702176 l2.301063340137224,0.9516464890114852 0.0,0.0 l2.343567118431963,-0.019220345159131586 2.714616313254927,-0.8602547445174196 l0.0,0.0 3.2892580078669957,-1.9390371146107555 l3.833644042764471,-2.858799776607801 0.0,0.0 l3.9543201961384775,-3.782985517474193 3.579394291510899,-4.161015597970239 l0.0,0.0 3.4841286280901045,-5.478842053709968 l3.725277218126829,-6.951376783401504 0.0,0.0 l4.07114304266986,-9.272916666666674 4.315678376459421,-11.06041666666666 l0.0,0.0 3.9247469913739033,-10.423871116345026 l3.131244180655718,-7.7424986414253 0.0,0.0 l2.725278006813729,-5.735294191746941 2.94870065851984,-5.598039141586393 l0.0,0.0 3.5237756919941035,-5.842918025241374 l4.1079052149540685,-6.324045550321633 0.0,0.0 l4.753179624612112,-6.568750000000004 5.075180123725204,-6.431249999999996 l0.0,0.0 6.167905480255475,-6.836861546610123 l7.38037037541892,-7.543943718445614 0.0,0.0 l7.9763450111825405,-7.3940244568562905 7.600780668367936,-6.476417364491122 l0.0,0.0 7.137500000000007,-5.4437192553539075 l6.862499999999993,-4.911154534888131 0.0,0.0 l6.666666666666667,-4.3787052633091434 6.666666666666667,-4.163575261983169 l0.0,0.0 7.863109611099124,-4.412008335568278 l9.54322097987665,-4.976001801928646 0.0,0.0 l10.207194702110845,-4.907527583048146 9.459471964555823,-4.247378830600259 l0.0,0.0 10.61302902012335,-4.097559679886672 l12.980640388900875,-4.547324093034642 0.0,0.0 l13.981250000000008,-4.333650088869746 13.018749999999992,-3.583832818809365 l0.0,0.0 11.452083333333348,-2.655152747001985 l10.214583333333318,-2.1008660864392183 0.0,0.0 l9.62708333333338,-1.5852119653061532 10.039583333333288,-1.4153885834267517 l0.0,0.0 10.039583333333288,-1.113441859148762 l9.62708333333338,-0.8592549473612058 0.0,0.0 l10.018750000000031,-0.47900915804130406 10.981249999999969,-0.19923389759240115 l0.0,0.0 10.981249999999969,0.19995521793219476 l10.018750000000031,0.4807433963050632 0.0,0.0 l9.039583333333363,0.7848935182099162 8.627083333333303,0.931209766341734 l0.0,0.0 8.529166666666697,1.2140002355203687 l8.804166666666637,1.464794007937267 0.0,0.0 l9.097916666666606,1.8440029521266321 9.235416666666728,2.1257153566565017 l0.0,0.0 10.3125,2.8910874958238346 l11.6875,3.6841529888480977 0.0,0.0 l11.295833333333348,4.023005531905558 9.370833333333318,3.705775524876875 l0.0,0.0 8.146376361722105,3.7070564355292057 l8.351926146268093,4.026085168154769 0.0,0.0 l8.205549784545914,4.308150244120857 7.794450215454087,4.385212894766842 l0.0,0.0 7.354323853731937,4.507859079746538 l7.147373638277865,4.603022986731635 0.0,0.0 l6.894537360199895,4.772291253791498 6.74644088728913,4.914823211188339 l0.0,0.0 6.65607019375572,5.242548752118495 l6.677263139577614,5.560227128793817 0.0,0.0 l7.175389804687787,6.6077687504158575 7.853693877957539,7.761106267933239 l0.0,0.0 7.474093816017027,8.039937188110722 l6.262734336618148,7.278149473395786 0.0,0.0 l5.295061567273554,6.988878183244917 5.147561413124777,7.344455150088417 l0.0,0.0 4.719489202965103,7.456802244645796 l4.265866679017336,7.258989282925445 0.0,0.0 l3.594289970685395,7.059940257642722 3.104847329741233,6.978237566838421 l0.0,0.0 2.443218082866603,6.736491019988496 l2.0035643345825065,6.478719836492985 0.0,0.0 l1.4266825144987554,6.663766126009667 1.0562468984102604,7.181389545847878 l0.0,0.0 0.4587438136115149,7.49885579200452 l-0.4784671065287209,7.355218062506424 0.0,0.0 l-1.0783693594780743,6.768034516529913 -1.452174020203832,6.015298653798065 l0.0,0.0 -2.069985245913358,5.5360590955196285 l-2.5637452851202247,5.615820259392422 0.0,0.0 l-3.312248331372454,5.5712056988869945 -3.869577676264195,5.4287943011130055 l0.0,0.0 -4.163431454363338,4.757990537063165 l-4.01874784041911,3.958422181065013 0.0,0.0 l-3.9854544377832704,3.288563158947227 -4.083385613983258,3.147478420056624 l0.0,0.0 -5.042330515443534,3.2293020971992896 l-6.2910028178898,3.485288169949816 0.0,0.0 l-7.029355834669938,3.2683774285466143 -6.81751968344679,2.707793293399959 l0.0,0.0 -6.470833333333303,2.038012413551504 l-6.195833333333364,1.6580531855067875 0.0,0.0 l-6.489583333333333,1.3324965523792116 -7.177083333333333,1.2552911466704018 l0.0,0.0 -10.389260960590946,0.9632040402303801 l-18.944072372742387,0.2181756877416774 0.0,0.0 l-19.162446817166256,-0.26960816146515754 -12.50421984950041,-0.9361071643951769 l0.0,0.0 -9.902083333333318,-1.3239743936829882 l-9.764583333333348,-1.5166254158547947 0.0,0.0 l-10.058333333333318,-1.9499048852715835 -10.608333333333348,-2.365688862706141 l0.0,0.0 -10.086970002546954,-2.5727746368099056 l-8.804842772080898,-2.4477919591806008 0.0,0.0 l-8.347039436200703,-2.708612292128578 -8.986293897132631,-3.1998533096423976 l0.0,0.0 -14.011823894585783,-5.631267890289981 l-20.4296966641197,-8.554353730706756 0.0,0.0 l-20.49583333333332,-8.540453316134668 -14.170833333333348,-5.5978477446166535 l0.0,0.0 -9.764583333333348,-3.2210468975247672 l-9.902083333333318,-2.8260172369561665 0.0,0.0 l-9.706249999999992,-2.133088387064428 -9.293750000000008,-1.555069024380752 l0.0,0.0 -9.288993881072884,-0.8084160657175895 l-10.04433945226045,0.0672625974670306 0.0,0.0 l-9.095688225852276,0.639584703934967 -6.9043117741477245,1.0597289901331426 l0.0,0.0 -5.680992332621524,1.5262280828281216 l-5.70110922523899,1.848097578926475 0.0,0.0 l-5.490950225950807,2.325821984926506 -5.17571644071586,2.6747995270409697 l0.0,0.0 -4.5969599234632215,3.011336251345824 l-4.09947179085403,3.1349421944254345 0.0,0.0 l-3.4882985715773507,3.2553854213750433 -3.127543460095884,3.3009125203949075 l0.0,0.0 -2.8798662654853238,3.669496549060151 l-2.89281935900298,4.141555532846762 0.0,0.0 l-2.6225104114954925,4.439368938349048 -2.229974540626737,4.385516013352951 l0.0,0.0 -1.8874043570374017,4.684321387802318 l-1.7988842254190256,5.1577733492592115 0.0,0.0 l-1.6460566045614844,6.136848065684944 -1.5199677366777753,7.0382669826130195 l0.0,0.0 -1.228521892983925,12.246463531952259 l-0.23397062789354095,34.767056315746004 0.0,0.0 l-0.22813148965944188,33.95851051306992 -1.0266148587103316,12.04148948693008 l0.0,0.0 -1.5541839482361866,6.807590270112844 l-2.0200497809785625,7.005482989845632 0.0,0.0 l-2.51085080509957,6.538513180239913 -2.7341949211226697,5.684875621486299 l0.0,0.0 -2.9678624574743253,4.667768619012501 l-3.0726472222852785,4.093128259398782 0.0,0.0 l-3.413009546882222,3.55591978046103 -3.7861803868244124,3.376182276034342 l0.0,0.0 -4.8200041340785065,3.2778074990956156 l-5.898585790280474,3.319401699735939 0.0,0.0 l-6.922091542381129,2.986985614686015 -7.411241790952204,2.2936698381167844 l0.0,0.0 -7.8315080094880996,1.6767232797323384 l-8.062987341960783,1.3187640497329387 0.0,0.0 l-9.462838544341954,0.7716771766345119 -11.87049478899138,0.2020779956781856 m-150.32708690540372,-114.57656815000367 l-0.19497988112156805,-43.148958333333326 -0.1434131469632271,-107.01770833333335 l0.0,0.0 -0.10669138172925706,-152.5 l197.83333333333334,0.10194478759918486 0.0,0.0 l136.75368271014213,0.21839753224357658 50.98225843076731,0.3819269183399565 l0.0,0.0 -9.256840946041544,0.5751595808636748 l-8.076492387291788,0.6829781889495377 0.0,0.0 l-8.341633430767311,1.0282850674041342 -9.89430771014213,1.4053654801268536 l0.0,0.0 -10.845182914271012,1.8630202842336334 l-10.627780198140726,2.128604064511922 0.0,0.0 l-10.09817676051326,2.4004262066151014 -9.571881032315446,2.516550115247661 l0.0,0.0 -8.648618641401034,2.556438527047502 l-7.878418246187228,2.496328132857279 0.0,0.0 l-8.408021683814733,3.0007344391914237 -9.921920523356562,3.769160072063651 l0.0,0.0 -11.489583333333334,4.874736234173511 l-12.177083333333334,5.658821807668332 0.0,0.0 l-11.785416666666643,6.099962737667606 -10.547916666666689,5.935351661618578 l0.0,0.0 -9.060224670057096,5.698389605339618 l-8.208625270562758,5.530245453422471 0.0,0.0 l-7.737983933839018,5.801222578206989 -7.928682732827649,6.349887798970523 l0.0,0.0 -7.751791396103916,6.894659381824492 l-7.312691996609563,7.110992554004819 0.0,0.0 l-6.280839024264537,6.793863223510925 -5.270953398763747,6.132199502126355 l0.0,0.0 -4.650671341576128,6.152258320320546 l-4.78952258889863,6.842089743850143 0.0,0.0 l-4.427124605207193,7.039583333333344 -3.7793740616372133,6.627083333333322 l0.0,0.0 -3.241110542979584,6.725000000000004 l-3.133001677370809,7.274999999999996 0.0,0.0 l-3.1591023735036856,8.15625 -3.3038632804905697,8.84375 l0.0,0.0 -3.4685672432990677,8.745833333333318 l-3.5550927521708786,7.9208333333333485 0.0,0.0 l-3.5445563597568444,6.412694748432614 -3.443235065792976,5.119883118572072 l0.0,0.0 -3.573214517369024,3.8435024138265135 l-3.857060147588603,3.343949649789124 0.0,0.0 l-4.059192641835883,2.9882075299442854 -1.5923898227618831,-1.495972563886956 l0.0,0.0 -1.1935793049693757,-1.35769650565616 l0.9182389450286715,-0.6254843640959203 0.0,0.0 l1.1435410599317304,-0.7427854703099683 0.8998909622571697,-1.101681062934669 l0.0,0.0 0.38869367532801863,-1.4538700797401514 l-0.08550773630219055,-1.5895377873104433 0.0,0.0 l-0.7040773461939315,-1.2966264419381257 -1.145390708647085,-0.6846165162887322 l0.0,0.0 -1.7906375339483134,-0.2968243571608203 l-2.3023005672174386,-0.29925517732961754 0.0,0.0 l-3.15625,-0.020487278774870294 -3.84375,0.3734048457474728 l0.0,0.0 -4.92083333333333,0.8623461858688491 l-5.745833333333337,1.1550525389639006 0.0,0.0 l-6.137499999999998,1.5489588108355672 -5.862500000000002,1.8093974352625157 l0.0,0.0 -5.568749999999994,2.192992095750242 l-5.431250000000006,2.471218313710286 0.0,0.0 l-5.333333333333333,2.902956061451126 -5.333333333333333,3.2309998722335727 l0.0,0.0 -5.529166666666669,3.9271484865661628 l-5.8041666666666645,4.576675070378428 0.0,0.0 l-5.421952604897939,4.905237389157719 -4.610226475605667,4.717096189163006 l0.0,0.0 -3.74138188371064,4.41182627515218 l-3.3330283733205355,4.171290574620798 0.0,0.0 l-2.991620078788671,4.195833333333326 -2.9205491755808453,4.470833333333341 l0.0,0.0 -3.1463230974506096,5.645833333333333 l-3.534438231369151,7.020833333333333 0.0,0.0 l-3.3143976319769,7.510416666666667 -2.617289315933064,6.822916666666667 l0.0,0.0 -2.0503002759095423,6.72579699912319 l-1.951211216601197,7.276916189381154 0.0,0.0 l-1.642987232692061,7.863619190258078 -1.3092511231067245,8.136380809741922 l0.0,0.0 -0.8248731917724533,6.568917143952111 l-0.4784190148032814,4.095036334210211 m663.3718758855874,-128.66666666666666 l-0.35820576173220314,-1.419791666666659 -0.6041836291966168,-3.4135416666666742 l0.0,0.0 -1.060808761471738,-5.1760416666666815 l-1.4560491648621792,-5.6572916666666515 0.0,0.0 l-2.1843993629313445,-6.4533625631398195 -2.8119485993830344,-7.089999353931944 l0.0,0.0 -3.613259801391905,-7.586360269991549 l-4.110956082654866,-7.646740935793749 0.0,0.0 l-4.815704364475626,-7.712404893454504 -5.30765460662072,-7.744233189473732 l0.0,0.0 -5.391626230502728,-7.136023677013536 l-5.017593587851404,-6.25011393796503 0.0,0.0 l-5.411811137601792,-6.117285269832185 -6.33942587139192,-6.816669645119627 l0.0,0.0 -7.3916666666666515,-7.315701131408844 l-7.9416666666666815,-7.317084375165829 0.0,0.0 l-7.858737155801767,-6.696508760789347 -7.192282949055273,-5.823678909610048 l0.0,0.0 -7.275212459920188,-5.367044052739165 l-8.058120873413145,-5.598641977248708 0.0,0.0 l-8.675139464583177,-5.535313598793323 -8.758682689754627,-5.214786461984734 l0.0,0.0 -8.827080765251216,-4.769905459804401 l-8.839585901415452,-4.465706082912949 0.0,0.0 l-8.795080154443667,-4.018835431803495 -8.720077586361489,-3.6955143199029408 l0.0,0.0 -8.759210717406782,-3.3175300497699944 l-8.889166192914217,-3.110064739781739 0.0,0.0 l-9.286205475507359,-2.851578820253605 -9.713794524492641,-2.6960639028193776 l0.0,0.0 -9.621250473752449,-2.312409832121078 l-9.063705949259884,-1.929176480064071 0.0,0.0 l-9.382740769504077,-1.581899948771209 -10.388291637318238,-1.477468384544622 l0.0,0.0 -11.043050867814221,-1.1499380233491125 l-10.956949132185779,-0.794433335684133 0.0,0.0 l27.683557449547077,-0.4182042530457169 88.92080829060858,-0.22285895939643607 l0.0,0.0 127.5,-0.09979230585277794 l0.0,87.0 0.0,0.0 l-0.05376791322578356,61.44375 " fill="none" stroke="black" stroke-width="1" /></svg>