<?xml version="1.0" encoding="utf-8" ?>
<svg baseProfile="full" height="83.33333333333334" version="1.1" width="88.66666666666667" xmlns="http://www.w3.org/2000/svg" xmlns:ev="http://www.w3.org/2001/xml-events" xmlns:xlink="http://www.w3.org/1999/xlink"><defs /><rect fill="white" height="83.33333333333334" width="88.66666666666667" x="0" y="0" /><path d="M25,25.000000000000004 m0.0,0.0 m5.833333333333333,33.30407145062812 l-5.833333333333333,0.029261882705213793 0.0,-12.574218752345052 l0.0,0.0 0.0,-12.574218752345052 l1.620121174291298,0.30970578610716143 0.0,0.0 l1.8629822167752648,-0.2687535628165385 2.3984480093880194,-1.544154469432249 l0.0,0.0 2.6247156498624,-1.6238832961982144 l2.598803789252892,-0.8450776140123951 0.0,0.0 l2.342236946494379,0.007225350602591145 1.7499422502939055,0.879901433991248 l0.0,0.0 1.1701310117190384,1.5542997122787707 l0.6847700859870448,2.012507497503062 0.0,0.0 l-0.043095004815143056,2.2582769997427263 -0.8791073000516197,2.0965666797396403 l0.0,0.0 -2.0751654417005674,2.0613609289006525 l-3.2422350060748024,2.1189186351793055 0.0,0.0 l-3.3641271726874264,2.123157339262491 -2.4006132787307144,2.0731491692174635 l0.0,0.0 -1.2692630441387667,2.0914127256221824 l-0.44521155253186845,2.1911319094136323 0.0,0.0 l0.40654312110069607,2.105736259574319 1.093456878899304,1.8704174967555218 l0.0,0.0 1.8427083333333343,1.4997559416836832 l2.3239583333333322,1.1748246431620022 0.0,0.0 l2.6666666666666665,0.9434341730026196 -5.833333333333333,0.029261882705213793 m21.0,-0.015335274461136805 l-9.465796468137524,-0.17649700660224235 0.3682622553485899,-0.7243705726023109 l0.0,0.0 2.8436384173942195,-1.2318559030397438 l2.9950723236088685,-1.7592738125312717 0.0,0.0 l2.9512240954848985,-2.5253746071909453 2.7382160816919217,-3.0737578136045016 l0.0,0.0 2.5181963930186364,-3.957480429061183 l2.422240588674659,-4.650069406054899 0.0,0.0 l1.9721148482633168,-4.074550781323111 1.4359791873487968,-2.5737867142805064 l0.0,0.0 0.8932341808112388,0.7321974158468075 l0.16095142982571056,10.91107929200664 0.0,0.0 l0.0,13.148337495603618 -11.833333333333334,-0.0445971571663506 m-14.182100846530739,-3.9554028428336494 l-1.6192092862752645,-0.4017251860839603 -1.3963449082127077,-0.9658499154784579 l0.0,0.0 -0.8966189600808944,-1.583325037969227 l0.6266272520061685,-2.547024404711294 0.0,0.0 l1.469754332168949,-2.5944946009554477 3.232209327110361,-2.003813482816445 l0.0,0.0 3.2539473921183393,-1.998598448100573 l2.579385941214994,-2.2275829280896766 0.0,0.0 l1.7196949485473805,-2.594509930343856 0.3793214746000804,-3.3148794144778306 l0.0,0.0 -0.33661152237263536,-3.194837690618318 l-1.496721810960698,-2.0785230016792418 0.0,0.0 l-1.9802083333333325,-1.5360870860182043 -2.1864583333333343,-1.229212510068999 l0.0,0.0 -0.15147291789171172,-0.8658561623640632 l10.318139584558379,-0.17091899313427214 0.0,0.0 l12.5,-0.026094540423467077 0.0,2.6666666666666665 l0.0,0.0 -0.28383089612594387,2.26291588391803 l-1.5907967752224863,0.4037507827486391 0.0,0.0 l-1.7588073164119038,0.45899067259890697 -1.513436022473286,1.4313856829843143 l0.0,0.0 -1.9811864102675543,3.3160942947675345 l-2.8006687298469473,5.318166294473169 0.0,0.0 l-3.060505786558082,5.433254899070654 -2.605901035977297,3.592796684544472 l0.0,0.0 -2.5459377272389787,1.930079983768067 l-2.9163386825702227,1.4356594269912268 0.0,0.0 l-2.7682147713578567,0.7652727679411697 -2.1898100258135145,0.3182992928604828 m-10.151232486802593,-24.82544291971466 l-2.5,2.4293732736956137 0.0,-3.468631843657143 l0.0,0.0 0.0,-3.468631843657143 l4.5,0.004107161049899943 0.0,0.0 l3.6783386875695023,0.13444087949174371 -1.1783386875695026,0.9048176904697854 l0.0,0.0 -2.146875,1.444704081691925 " fill="none" stroke="black" stroke-width="1" /></svg>